# Blender 5.0.1
# www.blender.org
mtllib propCCW.mtl
o propCCW
v -0.002423 -0.004123 0.000278
v -0.002346 -0.004123 0.000751
v -0.002189 -0.004123 0.001204
v -0.001955 -0.004123 0.001623
v -0.001652 -0.004123 0.001994
v -0.001289 -0.004123 0.002307
v -0.000660 -0.004123 0.002103
v -0.000877 -0.004123 0.002553
v 0.002055 -0.004123 0.002043
v -0.000429 -0.004123 0.002723
v 0.000042 -0.004123 0.002813
v 0.000521 -0.004123 0.002820
v 0.000994 -0.004123 0.002743
v 0.001363 -0.004123 -0.002265
v 0.001517 -0.004123 -0.002398
v 0.001069 -0.004123 -0.002569
v 0.000598 -0.004123 -0.002659
v 0.000119 -0.004123 -0.002665
v -0.000354 -0.004123 -0.002589
v -0.000807 -0.004123 -0.002431
v -0.000945 -0.004123 -0.001784
v -0.001225 -0.004123 -0.002197
v -0.002230 -0.004123 0.000345
v -0.001597 -0.004123 -0.001895
v -0.001910 -0.004123 -0.001532
v -0.002156 -0.004123 -0.001120
v -0.002326 -0.004123 -0.000672
v -0.002416 -0.004123 -0.000201
v 0.001447 -0.004123 0.002586
v 0.001865 -0.004123 0.002352
v 0.002237 -0.004123 0.002049
v 0.002550 -0.004123 0.001686
v 0.002796 -0.004123 0.001275
v 0.002966 -0.004123 0.000826
v 0.003056 -0.004123 0.000356
v 0.003063 -0.004123 -0.000124
v 0.002986 -0.004123 -0.000597
v 0.002828 -0.004123 -0.001050
v 0.002595 -0.004123 -0.001468
v 0.002292 -0.004123 -0.001840
v 0.001929 -0.004123 -0.002153
v 0.001508 0.004277 -0.002195
v -0.000926 0.004167 -0.002837
v 0.002553 0.004167 -0.002302
v 0.001928 0.004277 0.002148
v 0.003362 0.004277 -0.000146
v 0.002993 0.004166 0.001860
v -0.000660 0.004277 0.002103
v -0.002242 0.004277 0.000184
v -0.003007 0.004164 0.000501
v -0.000945 0.004277 -0.001784
v -0.000164 0.004175 0.003239
v 0.007879 0.000733 0.037663
v 0.005936 0.000074 0.018711
v 0.004897 -0.000690 0.054584
v 0.010863 -0.001956 0.071345
v 0.013535 -0.001240 0.047675
v 0.007430 -0.000123 0.089810
v 0.006920 0.000078 0.089835
v 0.006921 0.000076 0.089835
v 0.009901 -0.000884 0.080200
v 0.008800 -0.000801 0.089760
v 0.015299 0.000597 0.031591
v 0.009094 0.001778 0.004218
v -0.000296 0.000515 0.022529
v 0.002425 0.000816 0.045518
v 0.006913 0.000080 0.089835
v 0.003137 -0.000047 0.007198
v 0.008797 0.000966 0.014709
v 0.010535 0.000742 0.021003
v 0.009441 -0.001564 0.084180
v 0.012575 -0.000787 0.056136
v 0.014364 0.000035 0.040338
v 0.014264 0.001121 0.029026
v 0.010731 0.001812 0.021473
v 0.008736 0.002167 0.014187
v 0.009097 0.002898 0.003904
v 0.008270 0.000044 0.058426
v 0.006924 0.000075 0.089835
v 0.010025 -0.001084 0.048917
v -0.007127 -0.002559 0.002047
v -0.003154 -0.001658 0.007055
v 0.008012 0.001506 0.000192
v 0.006494 0.000962 0.004436
v 0.007903 0.002636 -0.000199
v -0.007082 -0.001314 0.002239
v -0.003700 -0.000429 0.006563
v 0.002237 0.001161 0.007624
v 0.006866 0.002338 0.003974
v -0.003713 0.003048 0.071645
v -0.005420 0.000367 0.034749
v -0.001451 0.003060 0.082425
v -0.004130 0.002937 0.072989
v -0.001068 0.001476 0.056437
v 0.000364 0.001267 0.073590
v -0.005428 0.000690 0.051410
v 0.004884 0.001074 0.090082
v -0.007229 -0.001253 0.013796
v -0.009468 -0.000086 0.038084
v -0.006930 0.001905 0.054439
v 0.001282 0.002442 0.087856
v -0.007008 0.001856 0.057846
v -0.007629 -0.002246 0.017032
v -0.009841 -0.001065 0.024742
v -0.010337 -0.001264 0.027869
v 0.006849 -0.000118 0.089557
v 0.003070 0.001785 0.089575
v 0.006022 0.000592 0.073771
v 0.000514 0.002902 0.086021
v 0.006892 0.000082 0.089853
v 0.006387 0.000514 0.089676
v 0.001325 -0.000687 0.027450
v -0.003389 -0.000699 0.034520
v 0.007662 0.004277 0.002354
v 0.004045 0.004277 0.006780
v -0.000378 0.004200 0.007166
v -0.006063 -0.004068 0.003806
v -0.002857 -0.004035 0.006644
v 0.000801 -0.004070 0.007436
v 0.007638 -0.004050 -0.000587
v 0.006102 -0.004123 0.005347
v -0.007223 -0.004123 -0.001625
v -0.007274 0.004277 0.000367
v -0.005152 0.004277 0.005596
v -0.005637 0.004277 -0.004833
v -0.003669 -0.004062 -0.006168
v 0.000093 0.004277 -0.007640
v 0.001872 -0.004061 -0.007093
v 0.006685 0.004277 -0.004543
v 0.005732 -0.004073 -0.004753
v -0.006661 -0.004123 0.000589
v 0.006245 -0.004037 0.004172
v -0.006106 -0.004041 -0.003372
v 0.006273 0.004182 -0.003347
v 0.007002 0.004277 -0.000412
v 0.006883 0.004208 0.001784
v 0.004992 0.004179 0.005191
v -0.006572 0.004184 -0.001373
v -0.003062 0.004181 -0.005803
v 0.001744 0.004186 -0.006694
v -0.004941 0.004183 0.004421
v 0.007002 0.004077 -0.000412
v 0.003362 0.004077 -0.000146
v -0.006661 -0.003923 0.000589
v 0.001517 -0.003923 -0.002398
v 0.001069 -0.003923 -0.002569
v 0.000598 -0.003923 -0.002659
v -0.002423 -0.003923 0.000278
v -0.002416 -0.003923 -0.000201
v -0.001597 -0.003923 -0.001895
v -0.001910 -0.003923 -0.001532
v -0.002156 -0.003923 -0.001120
v -0.001225 -0.003923 -0.002197
v -0.000354 -0.003923 -0.002589
v -0.000807 -0.003923 -0.002431
v 0.000119 -0.003923 -0.002665
v 0.001929 -0.003923 -0.002153
v 0.000521 -0.003923 0.002820
v 0.000994 -0.003923 0.002743
v 0.001447 -0.003923 0.002586
v 0.002595 -0.003923 -0.001468
v 0.002292 -0.003923 -0.001840
v 0.002986 -0.003923 -0.000597
v 0.002828 -0.003923 -0.001050
v -0.000429 -0.003923 0.002723
v 0.000042 -0.003923 0.002813
v -0.001289 -0.003923 0.002307
v -0.000877 -0.003923 0.002553
v -0.002326 -0.003923 -0.000672
v -0.001652 -0.003923 0.001994
v -0.002189 -0.003923 0.001204
v -0.001955 -0.003923 0.001623
v -0.002346 -0.003923 0.000751
v 0.003063 -0.003923 -0.000124
v 0.002550 -0.003923 0.001686
v 0.002796 -0.003923 0.001275
v 0.002966 -0.003923 0.000826
v 0.003056 -0.003923 0.000356
v 0.001865 -0.003923 0.002352
v 0.002237 -0.003923 0.002049
v 0.000942 -0.004123 -0.002310
v -0.001868 -0.004123 -0.000734
v 0.002573 -0.004123 0.001455
v -0.001321 -0.004123 0.001852
v 0.003356 0.004277 0.000372
v 0.001839 0.004277 0.002022
v 0.003262 0.004277 0.000880
v 0.003084 0.004277 0.001366
v 0.002827 0.004277 0.001815
v 0.002497 0.004277 0.002213
v 0.002105 0.004277 0.002551
v 0.001661 0.004277 0.002817
v -0.002360 0.004277 0.001533
v -0.002568 0.004277 0.001059
v -0.001934 0.004277 -0.000664
v -0.002692 0.004277 0.000557
v -0.002730 0.004277 0.000041
v -0.002680 0.004277 -0.000474
v -0.002544 0.004277 -0.000973
v -0.002325 0.004277 -0.001441
v -0.002030 0.004277 -0.001867
v -0.001668 0.004277 -0.002236
v -0.001249 0.004277 -0.002539
v 0.001841 0.004277 -0.002082
v -0.000784 0.004277 -0.002766
v -0.000288 0.004277 -0.002912
v 0.000226 0.004277 -0.002971
v 0.000743 0.004277 -0.002943
v 0.001247 0.004277 -0.002828
v 0.001725 0.004277 -0.002630
v 0.002162 0.004277 -0.002353
v 0.002547 0.004277 -0.002007
v 0.002867 0.004277 -0.001601
v 0.003114 0.004277 -0.001146
v 0.003280 0.004277 -0.000657
v 0.001179 0.004277 0.003004
v 0.000672 0.004277 0.003107
v 0.000155 0.004277 0.003123
v -0.001227 0.004277 0.001876
v -0.000358 0.004277 0.003051
v -0.000851 0.004277 0.002894
v -0.001310 0.004277 0.002655
v -0.001722 0.004277 0.002343
v -0.002076 0.004277 0.001965
v 0.009303 0.002057 -0.014910
v 0.007076 0.000530 -0.003322
v 0.024025 0.000902 -0.018399
v 0.015271 0.000689 -0.021807
v 0.074768 0.000065 -0.050503
v 0.059556 -0.001959 -0.045914
v 0.048533 -0.000541 -0.032258
v 0.035356 -0.001279 -0.035351
v 0.073768 -0.000791 -0.052106
v 0.074476 -0.000114 -0.050935
v 0.074753 0.000078 -0.050517
v 0.074752 0.000076 -0.050518
v 0.003231 0.001901 -0.007140
v 0.020208 0.000566 -0.028704
v -0.001215 0.001792 -0.009132
v 0.076014 0.002247 -0.046057
v 0.042268 0.000958 -0.025438
v 0.056664 0.000205 -0.040157
v 0.005090 -0.000052 -0.005827
v 0.020345 -0.000267 -0.017597
v 0.001565 0.000950 -0.007415
v 0.008935 0.000950 -0.014685
v 0.058938 -0.001097 -0.045655
v 0.029514 -0.000123 -0.032794
v 0.019871 0.000898 -0.028419
v 0.015405 0.001637 -0.022015
v -0.000692 0.002908 -0.009484
v 0.037181 0.000070 -0.032226
v 0.074757 0.000080 -0.050511
v 0.074750 0.000075 -0.050521
v 0.036302 -0.001050 -0.032250
v 0.016589 0.001320 -0.016627
v 0.007740 -0.001255 -0.001894
v 0.006537 -0.002448 0.004822
v -0.003192 0.001487 -0.006728
v -0.003303 0.002651 -0.006709
v 0.006002 -0.001421 0.005310
v 0.007943 -0.000438 0.000393
v 0.037767 -0.000528 -0.022104
v 0.030046 0.000263 -0.012562
v 0.076151 0.002371 -0.045189
v 0.075594 0.000735 -0.049442
v 0.073574 -0.001015 -0.052036
v 0.067915 0.003058 -0.034649
v 0.055664 0.002055 -0.023763
v 0.031716 -0.000931 -0.005740
v 0.017668 -0.001126 -0.000926
v 0.025680 -0.001107 -0.003174
v 0.027095 -0.001579 -0.003539
v 0.015351 -0.002424 0.000048
v 0.062434 0.001460 -0.034271
v 0.072891 0.003018 -0.040067
v 0.076354 0.001469 -0.047731
v 0.053945 0.002020 -0.025203
v 0.063616 0.003010 -0.031655
v 0.071973 0.003148 -0.039766
v 0.074755 0.000290 -0.050352
v 0.048071 0.001582 -0.018776
v 0.044319 0.000361 -0.018045
v 0.024893 -0.001186 -0.009477
v 0.001338 0.004277 -0.007517
v 0.005339 0.004277 -0.005570
v 0.007249 0.004277 0.003168
v 0.003997 0.004277 0.006842
v 0.007755 -0.004123 0.001929
v 0.007418 -0.004123 -0.002510
v -0.000001 -0.004123 -0.007504
v -0.003571 -0.004123 -0.006401
v 0.004732 -0.004123 -0.006199
v 0.005545 -0.004123 0.005517
v 0.007780 0.004277 -0.001713
v -0.004966 0.004277 -0.005727
v -0.006702 -0.004123 -0.003018
v -0.007321 0.004277 0.000783
v -0.006806 -0.004123 0.003069
v -0.003513 0.004277 0.007022
v -0.002391 -0.004123 0.007256
v 0.002552 -0.004123 0.007336
v 0.006503 -0.004123 0.003358
v 0.006832 -0.004123 0.002645
v 0.007078 -0.004123 0.001900
v 0.007240 -0.004123 0.001132
v 0.007315 -0.004123 0.000351
v 0.007301 -0.004123 -0.000434
v 0.007200 -0.004123 -0.001213
v 0.007012 -0.004123 -0.001975
v 0.006740 -0.004123 -0.002711
v 0.006388 -0.004123 -0.003413
v 0.005959 -0.004123 -0.004070
v 0.005459 -0.004123 -0.004675
v 0.004895 -0.004123 -0.005221
v 0.004273 -0.004123 -0.005700
v 0.003601 -0.004123 -0.006106
v 0.002888 -0.004123 -0.006435
v 0.002143 -0.004123 -0.006681
v 0.001375 -0.004123 -0.006843
v 0.000593 -0.004123 -0.006917
v -0.000192 -0.004123 -0.006904
v -0.000970 -0.004123 -0.006803
v -0.001732 -0.004123 -0.006615
v -0.002469 -0.004123 -0.006343
v -0.003170 -0.004123 -0.005991
v -0.003828 -0.004123 -0.005562
v -0.004433 -0.004123 -0.005062
v -0.004978 -0.004123 -0.004498
v -0.005457 -0.004123 -0.003876
v -0.005863 -0.004123 -0.003204
v -0.006192 -0.004123 -0.002491
v -0.006439 -0.004123 -0.001746
v -0.006600 -0.004123 -0.000977
v -0.006675 -0.004123 -0.000196
v -0.006560 -0.004123 0.001367
v -0.006373 -0.004123 0.002129
v -0.006101 -0.004123 0.002866
v -0.005748 -0.004123 0.003567
v -0.005319 -0.004123 0.004225
v -0.004819 -0.004123 0.004830
v -0.004255 -0.004123 0.005375
v -0.003633 -0.004123 0.005854
v -0.002961 -0.004123 0.006261
v -0.002248 -0.004123 0.006589
v -0.001503 -0.004123 0.006836
v -0.000735 -0.004123 0.006997
v 0.000047 -0.004123 0.007072
v 0.000831 -0.004123 0.007059
v 0.001610 -0.004123 0.006957
v 0.002372 -0.004123 0.006770
v 0.003108 -0.004123 0.006498
v 0.003810 -0.004123 0.006145
v 0.004467 -0.004123 0.005716
v 0.005073 -0.004123 0.005217
v 0.005618 -0.004123 0.004652
v 0.006097 -0.004123 0.004030
v -0.004272 0.004277 0.004956
v -0.004798 0.004277 0.004401
v -0.005258 0.004277 0.003789
v -0.005645 0.004277 0.003129
v -0.005954 0.004277 0.002430
v -0.006181 0.004277 0.001699
v -0.006323 0.004277 0.000948
v -0.006379 0.004277 0.000185
v -0.006348 0.004277 -0.000580
v -0.006229 0.004277 -0.001336
v -0.006026 0.004277 -0.002073
v -0.005739 0.004277 -0.002782
v -0.005374 0.004277 -0.003454
v -0.004934 0.004277 -0.004080
v -0.004426 0.004277 -0.004652
v -0.003856 0.004277 -0.005162
v -0.003231 0.004277 -0.005604
v -0.002561 0.004277 -0.005972
v -0.001852 0.004277 -0.006261
v -0.001116 0.004277 -0.006467
v -0.000360 0.004277 -0.006588
v 0.000404 0.004277 -0.006622
v 0.001167 0.004277 -0.006569
v 0.001919 0.004277 -0.006429
v 0.002650 0.004277 -0.006204
v 0.003351 0.004277 -0.005898
v 0.004013 0.004277 -0.005513
v 0.004626 0.004277 -0.005056
v 0.005183 0.004277 -0.004532
v 0.005676 0.004277 -0.003947
v 0.006100 0.004277 -0.003310
v 0.006449 0.004277 -0.002629
v 0.006717 0.004277 -0.001913
v 0.006903 0.004277 -0.001171
v 0.007014 0.004277 0.000353
v 0.006939 0.004277 0.001114
v 0.006778 0.004277 0.001862
v 0.006532 0.004277 0.002586
v 0.006206 0.004277 0.003278
v 0.005803 0.004277 0.003928
v 0.005328 0.004277 0.004528
v 0.004788 0.004277 0.005070
v 0.004190 0.004277 0.005547
v 0.003541 0.004277 0.005952
v 0.002850 0.004277 0.006281
v 0.002127 0.004277 0.006529
v 0.001380 0.004277 0.006693
v 0.000618 0.004277 0.006771
v -0.000146 0.004277 0.006761
v -0.000905 0.004277 0.006664
v -0.001648 0.004277 0.006482
v -0.002365 0.004277 0.006216
v -0.003048 0.004277 0.005869
v -0.003686 0.004277 0.005448
v 0.006981 0.004077 0.001023
v 0.005747 0.004077 0.004217
v 0.001149 0.004077 0.006953
v -0.004299 0.004077 0.005166
v -0.006294 0.004077 0.001443
v -0.005527 0.004077 -0.003869
v 0.001075 0.004077 -0.006869
v 0.006185 0.004077 -0.003504
v -0.002764 0.004077 -0.000677
v 0.002760 0.004077 -0.001954
v 0.003114 0.004077 0.001584
v -0.000407 0.004077 -0.003061
v -0.002229 0.004077 0.001847
v 0.000233 0.004077 0.003297
v -0.006335 -0.003923 0.002414
v -0.004126 -0.003923 0.005647
v -0.000077 -0.003923 0.007153
v 0.003749 -0.003923 0.006279
v 0.007140 -0.003923 0.002471
v 0.006866 -0.003923 -0.002636
v 0.004114 -0.003923 -0.005955
v -0.000475 -0.003923 -0.007005
v -0.004403 -0.003923 -0.005206
v -0.006490 -0.003923 -0.001884
v -0.001344 -0.004123 -0.001676
v -0.001802 -0.004123 0.001139
v 0.001715 -0.004123 -0.001896
v 0.002140 -0.004123 0.001992
v 0.001771 0.004277 0.002212
v 0.002049 0.004277 -0.001682
v -0.001017 0.004277 -0.001882
v -0.001987 0.004277 0.000800
v -0.033394 -0.000580 -0.015204
v -0.032969 -0.000273 -0.009152
v -0.024084 0.000758 -0.001692
v -0.080218 -0.001216 -0.036391
v -0.068460 -0.000163 -0.034190
v -0.081597 -0.000791 -0.037441
v -0.080706 0.000060 -0.039104
v -0.052480 -0.000904 -0.023399
v -0.068112 -0.001969 -0.027477
v -0.080713 0.000078 -0.039086
v -0.080713 0.000076 -0.039085
v -0.006551 0.000819 -0.003231
v -0.034469 0.000586 -0.002711
v -0.006888 0.001792 0.006012
v -0.080689 0.000115 -0.039110
v -0.079486 0.001436 -0.041402
v -0.042751 0.000958 -0.023493
v -0.060050 0.000032 -0.026527
v -0.080711 0.000081 -0.039089
v -0.080692 0.000090 -0.039107
v -0.080573 -0.000141 -0.038965
v -0.007181 -0.000050 -0.001098
v -0.016771 0.000951 -0.000002
v -0.068594 -0.001097 -0.027821
v -0.041017 0.000093 -0.007470
v -0.031592 0.001138 -0.002304
v -0.025455 0.001740 -0.001894
v -0.016688 0.002024 0.000021
v -0.010245 0.002777 0.004046
v -0.080691 0.000092 -0.039107
v -0.080694 0.000088 -0.039107
v -0.080714 0.000075 -0.039082
v -0.047070 -0.001212 -0.011952
v -0.033606 0.000855 -0.009569
v -0.005025 -0.001310 -0.005435
v -0.003370 -0.002593 -0.010699
v 0.001321 -0.002448 -0.007679
v -0.003817 0.001487 0.006521
v -0.006727 0.000892 0.002889
v -0.003619 0.002694 0.006889
v 0.002012 -0.001421 -0.007459
v -0.003186 -0.000455 -0.006701
v -0.007134 0.002027 0.001909
v -0.036894 -0.000019 -0.025683
v -0.021688 0.000008 -0.018860
v -0.075755 0.002677 -0.042956
v -0.046032 0.001853 -0.035150
v -0.028223 -0.000005 -0.027630
v -0.019539 0.000433 -0.012622
v -0.010171 -0.001145 -0.015188
v -0.016061 -0.001044 -0.021169
v -0.018654 -0.001229 -0.023175
v -0.011323 -0.002148 -0.016218
v -0.072276 0.002872 -0.042927
v -0.078082 0.001922 -0.042503
v -0.079873 0.001082 -0.041029
v -0.043426 0.001879 -0.033195
v -0.057580 0.002859 -0.038299
v -0.063172 0.003076 -0.041041
v -0.073610 0.002914 -0.042532
v -0.021991 -0.000975 -0.015644
v -0.048900 0.001380 -0.033832
v -0.006766 0.004277 0.002993
v -0.007080 0.004277 -0.001448
v -0.000468 0.004277 -0.007470
v 0.005431 0.004277 -0.005967
v 0.000968 -0.004123 -0.007442
v -0.002512 -0.004123 -0.006956
v -0.005470 -0.004123 -0.004776
v -0.006863 -0.004123 0.002990
v -0.002675 -0.004123 0.007109
v -0.006973 -0.004123 -0.001863
v 0.004603 -0.004123 -0.006230
v -0.004960 0.004277 -0.005489
v -0.002065 0.004277 0.007557
v 0.002770 -0.004123 0.007349
v 0.004751 0.004277 0.006342
v 0.007100 -0.004123 0.003671
v 0.007969 0.004277 0.001178
v 0.007714 -0.004123 -0.001976
vn -0.0000 1.0000 -0.0000
vn -0.0581 -0.9237 0.3787
vn -0.1035 -0.9946 0.0100
vn 0.0508 -0.9982 0.0318
vn -0.1242 -0.9892 -0.0776
vn 0.0016 -0.9959 -0.0905
vn 0.2225 -0.9575 -0.1835
vn 0.1036 -0.9892 -0.1036
vn 0.1939 -0.9737 0.1200
vn 0.1606 -0.9813 0.1059
vn 0.0175 -0.9944 0.1047
vn -0.2240 -0.8318 -0.5079
vn -0.2024 -0.3410 -0.9180
vn -0.5387 -0.3249 -0.7774
vn -0.2366 0.9705 0.0474
vn -0.2614 0.9629 0.0671
vn -0.1852 0.9789 0.0860
vn 0.3377 0.9370 -0.0892
vn -0.2638 -0.9604 -0.0899
vn -0.0612 -0.9976 -0.0320
vn -0.3611 -0.9325 0.0037
vn -0.3116 -0.9043 -0.2918
vn -0.0772 -0.0507 -0.9957
vn -0.1826 -0.9826 0.0336
vn -0.4625 -0.7395 -0.4892
vn -0.2753 -0.6073 -0.7453
vn 0.0013 0.1389 -0.9903
vn -0.0792 -0.0470 -0.9958
vn 0.0722 0.0393 0.9966
vn -0.3587 -0.8754 -0.3241
vn -0.3336 -0.9426 -0.0152
vn -0.2031 -0.9788 -0.0265
vn -0.3920 -0.7528 -0.5288
vn -0.4769 -0.8777 -0.0473
vn 0.0571 0.9977 0.0366
vn 0.3250 0.7611 -0.5614
vn 0.0675 0.9955 0.0664
vn -0.1758 0.9801 0.0926
vn -0.1735 0.9829 0.0612
vn -0.1306 0.9913 0.0173
vn 0.1032 0.9944 0.0242
vn 0.1143 0.9929 0.0343
vn 0.2941 0.9558 0.0034
vn 0.0810 -0.9963 -0.0294
vn 0.2041 -0.9775 -0.0523
vn 0.0031 -0.9999 0.0127
vn -0.0363 -0.9967 -0.0728
vn -0.3377 -0.9372 -0.0870
vn 0.0395 -0.9974 -0.0595
vn -0.0396 -0.9966 -0.0726
vn -0.2041 -0.9785 -0.0286
vn -0.2982 0.9544 0.0156
vn -0.3007 0.9536 -0.0171
vn 0.2433 -0.9699 0.0082
vn 0.2058 -0.9771 -0.0540
vn 0.2413 -0.9686 -0.0604
vn 0.2432 -0.9699 -0.0089
vn -0.0019 1.0000 0.0004
vn 0.3138 0.7650 -0.5624
vn 0.7640 -0.4736 -0.4383
vn 0.2584 -0.9660 0.0020
vn 0.5907 -0.8058 0.0426
vn 0.3707 0.9261 -0.0703
vn 0.4411 0.8917 -0.1019
vn 0.1512 0.9865 -0.0629
vn 0.4232 0.8435 -0.3307
vn 0.2742 0.9568 -0.0965
vn 0.4489 0.8848 -0.1252
vn -0.1377 -0.9874 0.0781
vn 0.2869 -0.9579 0.0100
vn 0.2430 0.9632 -0.1149
vn -0.1538 -0.9881 0.0106
vn -0.1542 -0.9880 0.0127
vn -0.2682 -0.9614 0.0607
vn 0.1586 -0.9868 -0.0322
vn -0.2353 -0.9701 0.0594
vn -0.2043 -0.9663 -0.1568
vn -0.3556 -0.9339 -0.0377
vn -0.1324 -0.9908 0.0289
vn -0.3573 -0.9333 -0.0358
vn -0.4177 -0.7162 -0.5590
vn -0.3789 -0.9254 0.0041
vn -0.0443 -0.9962 0.0744
vn 0.1240 -0.9885 0.0867
vn 0.3927 0.9092 -0.1382
vn 0.6077 -0.7942 0.0024
vn 0.3547 -0.9332 0.0586
vn 0.2396 -0.9708 0.0063
vn 0.1738 -0.9829 0.0610
vn -0.0179 -0.9983 0.0546
vn 0.0468 -0.9989 0.0075
vn 0.3737 -0.9275 -0.0048
vn 0.1817 -0.9815 0.0602
vn -0.1254 0.9919 0.0201
vn -0.2482 0.9687 0.0084
vn -0.1576 0.9874 -0.0124
vn -0.0173 0.9963 -0.0840
vn -0.1890 0.9816 -0.0268
vn 0.2944 0.9504 -0.1000
vn -0.0985 0.9931 -0.0640
vn -0.0369 0.9944 -0.0994
vn 0.4458 0.8864 -0.1251
vn 0.2874 0.9573 -0.0300
vn 0.1519 0.9862 -0.0653
vn 0.3746 0.9196 -0.1183
vn 0.0442 -0.0847 -0.9954
vn -0.9636 0.0997 -0.2482
vn -0.9420 0.0125 -0.3354
vn -0.6158 -0.0928 -0.7825
vn -0.3609 0.1549 -0.9197
vn 0.2095 0.1921 -0.9588
vn 0.6471 0.2079 -0.7335
vn 0.7878 -0.1429 -0.5991
vn 0.8940 0.4033 -0.1951
vn 0.9993 -0.0344 -0.0115
vn 0.9225 -0.0937 -0.3745
vn 0.7719 0.1094 -0.6262
vn 0.3095 -0.0989 -0.9457
vn 0.1752 0.0025 -0.9845
vn -0.0812 -0.2164 -0.9729
vn -0.7576 -0.2064 -0.6192
vn -0.6362 0.1650 -0.7537
vn -0.9531 0.2055 -0.2221
vn -0.9305 -0.3419 0.1318
vn 0.9986 0.0177 -0.0494
vn 0.9518 -0.0653 0.2996
vn 0.7841 0.0867 0.6146
vn 0.4395 -0.0399 0.8974
vn 0.1638 0.0993 0.9815
vn -0.4250 -0.0314 0.9047
vn -0.5179 0.0376 0.8546
vn -0.9055 0.0930 0.4139
vn -0.9587 0.0248 0.2833
vn -0.9628 0.0004 0.2702
vn 0.0222 -0.0122 0.9997
vn -0.0174 -0.0000 0.9998
vn -0.7459 -0.0000 0.6661
vn -0.7715 0.0110 0.6362
vn -0.8560 -0.0111 -0.5169
vn -0.8350 -0.0000 -0.5502
vn -0.2039 -0.0000 -0.9790
vn -0.1652 0.0110 -0.9862
vn 0.9872 -0.0157 -0.1587
vn 0.9952 0.0163 -0.0964
vn 0.2424 0.9682 -0.0616
vn 0.0404 0.9962 0.0774
vn 0.4002 0.9092 0.1147
vn -0.2266 -0.9553 -0.1900
vn -0.0529 0.9985 0.0133
vn 0.0460 -0.9969 -0.0633
vn 0.1852 -0.9826 -0.0142
vn -0.0004 -1.0000 -0.0000
vn 0.1074 -0.9939 -0.0257
vn 0.0675 -0.9973 0.0292
vn 0.2616 -0.9412 0.2138
vn -0.5106 -0.8447 -0.1607
vn -0.0529 -0.9978 -0.0411
vn -0.1523 -0.9381 -0.3110
vn -0.0127 -0.9972 -0.0742
vn 0.2169 -0.8601 -0.4618
vn 0.0241 -0.9968 0.0757
vn -0.0400 -0.9966 0.0725
vn -0.1710 -0.9841 0.0480
vn -0.0661 -0.9975 0.0268
vn 0.9636 -0.2645 0.0378
vn 0.9204 0.3271 0.2140
vn 0.8485 0.5023 0.1665
vn 0.9992 -0.0381 0.0129
vn -0.9644 0.0743 0.2540
vn -0.9602 0.0038 0.2792
vn -0.9973 -0.0658 -0.0333
vn -0.9993 -0.0070 -0.0356
vn -0.9615 0.0665 0.2666
vn -0.9617 0.0593 0.2676
vn -0.9063 -0.0189 0.4222
vn -0.8890 0.2174 0.4030
vn -0.9932 0.0559 -0.1026
vn -0.9936 -0.0072 -0.1124
vn -0.9936 -0.0018 -0.1127
vn -0.9936 0.0238 -0.1108
vn -0.9937 0.0197 -0.1103
vn -0.9934 0.0024 -0.1144
vn 0.9985 -0.0000 0.0540
vn 0.9705 -0.0000 -0.2412
vn -0.0070 -0.9992 -0.0392
vn -0.0026 -0.9994 -0.0351
vn 0.0033 -0.9990 0.0449
vn 0.0027 -1.0000 -0.0047
vn -0.0039 -1.0000 -0.0033
vn -0.0002 -1.0000 0.0064
vn -0.0006 -1.0000 0.0046
vn -0.0066 -1.0000 0.0017
vn 0.0118 -0.9981 0.0599
vn 0.0106 -0.9999 -0.0024
vn 0.0002 -1.0000 -0.0049
vn 0.0009 -1.0000 -0.0044
vn -0.0036 -1.0000 -0.0021
vn -0.0008 -1.0000 0.0045
vn -0.0015 -1.0000 0.0063
vn -0.9363 -0.0000 0.3512
vn -0.9835 -0.0000 -0.1808
vn -0.9831 -0.0000 0.1830
vn -0.9903 -0.0000 -0.1389
vn 0.0108 0.9995 -0.0285
vn 0.0056 0.9996 -0.0294
vn -0.0315 0.9995 -0.0004
vn -0.0203 0.9996 -0.0176
vn -0.0222 0.9997 -0.0133
vn -0.0191 0.9995 -0.0234
vn -0.0183 0.9996 -0.0238
vn -0.0103 0.9995 -0.0295
vn -0.0146 0.9996 -0.0261
vn 0.0004 0.9995 -0.0309
vn -0.0054 0.9994 -0.0332
vn -0.0059 0.9994 -0.0335
vn 0.0167 0.9995 -0.0281
vn 0.0051 0.9995 0.0316
vn 0.0111 0.9994 0.0318
vn 0.0258 0.9994 -0.0210
vn 0.0220 0.9994 -0.0255
vn 0.0202 0.9994 -0.0281
vn 0.0273 0.9996 -0.0095
vn 0.0279 0.9995 -0.0156
vn 0.0284 0.9994 -0.0185
vn -0.0049 0.9997 0.0256
vn -0.0004 0.9996 0.0289
vn 0.0028 0.9995 0.0317
vn -0.0127 0.9997 0.0213
vn -0.0088 0.9997 0.0231
vn -0.0245 0.9997 -0.0093
vn -0.0274 0.9996 -0.0052
vn -0.0170 0.9997 0.0197
vn -0.0273 0.9995 0.0152
vn -0.0247 0.9995 0.0201
vn -0.0258 0.9995 0.0174
vn -0.0022 0.9995 -0.0300
vn 0.0033 0.9990 0.0445
vn -0.0345 0.9994 0.0056
vn -0.0304 0.9995 0.0106
vn 0.0273 0.9996 -0.0044
vn 0.0221 0.9997 0.0132
vn 0.0251 0.9996 0.0095
vn 0.0289 0.9996 0.0058
vn 0.0288 0.9996 0.0055
vn 0.0278 0.9996 0.0004
vn 0.0173 0.9996 0.0212
vn 0.0196 0.9997 0.0169
vn 0.0183 0.9993 0.0328
vn 0.0129 0.9994 0.0317
vn 0.9872 -0.0000 -0.1597
vn 0.9444 -0.0000 -0.3287
vn 0.8730 -0.0000 -0.4877
vn 0.7751 -0.0000 -0.6319
vn 0.6535 -0.0000 -0.7569
vn 0.5122 -0.0000 -0.8589
vn 0.3553 -0.0000 -0.9348
vn 0.1875 -0.0000 -0.9823
vn 0.0141 -0.0000 -0.9999
vn -0.1597 -0.0000 -0.9872
vn -0.3287 -0.0000 -0.9444
vn -0.4877 -0.0000 -0.8730
vn -0.6319 -0.0000 -0.7750
vn -0.7569 -0.0000 -0.6536
vn -0.8589 -0.0000 -0.5122
vn -0.9348 -0.0000 -0.3552
vn -0.9823 -0.0000 -0.1876
vn -0.9823 -0.0000 -0.1875
vn -0.9999 -0.0000 -0.0141
vn -0.9872 -0.0000 0.1597
vn -0.9444 -0.0000 0.3287
vn -0.8730 -0.0000 0.4877
vn -0.7750 -0.0000 0.6319
vn -0.6535 -0.0000 0.7569
vn -0.5122 -0.0000 0.8589
vn -0.3553 -0.0000 0.9348
vn -0.1875 -0.0000 0.9823
vn -0.0141 -0.0000 0.9999
vn 0.1597 -0.0000 0.9872
vn 0.3287 -0.0000 0.9444
vn 0.4877 -0.0000 0.8730
vn 0.6319 -0.0000 0.7750
vn 0.7569 -0.0000 0.6535
vn 0.8589 -0.0000 0.5122
vn 0.9348 -0.0000 0.3552
vn 0.9823 -0.0000 0.1875
vn 0.9999 -0.0000 0.0141
vn -0.0000 -1.0000 -0.0000
vn -0.7286 -0.1299 0.6725
vn 0.1874 -0.9134 0.3613
vn 0.1800 0.9666 0.1825
vn 0.0167 -0.9934 0.1133
vn -0.1520 -0.9690 -0.1948
vn 0.0365 -0.9956 0.0866
vn 0.1901 -0.9348 0.2999
vn -0.7616 -0.2525 0.5968
vn -0.8193 -0.0530 0.5709
vn -0.7567 -0.2982 0.5818
vn -0.8105 -0.3591 0.4628
vn -0.6128 -0.4816 0.6265
vn -0.8208 -0.0281 0.5705
vn -0.8202 -0.0614 0.5688
vn 0.8258 0.0450 -0.5622
vn -0.7530 -0.2446 0.6108
vn 0.1185 -0.9542 0.2749
vn -0.5153 -0.5692 0.6407
vn -0.7200 -0.3162 0.6178
vn 0.2042 -0.8806 0.4277
vn -0.0037 0.9974 -0.0726
vn -0.0415 0.9943 -0.0983
vn -0.0413 0.9898 -0.1362
vn -0.1668 0.9578 -0.2341
vn 0.1632 0.9816 0.0993
vn 0.1410 0.9796 0.1430
vn 0.1245 0.9894 0.0745
vn 0.1773 0.9610 0.2123
vn 0.0202 0.9996 0.0202
vn 0.1210 0.9895 0.0788
vn 0.0398 0.9955 -0.0857
vn -0.0624 -0.9977 -0.0268
vn -0.1124 -0.9923 -0.0515
vn -0.1553 -0.9750 -0.1589
vn -0.0393 -0.9969 -0.0687
vn -0.0540 -0.9985 0.0087
vn 0.0509 -0.9928 0.1082
vn -0.1182 -0.9900 -0.0766
vn -0.0779 -0.9951 0.0605
vn 0.0118 -0.9843 0.1762
vn -0.0738 -0.9973 -0.0045
vn -0.7350 0.6706 0.1000
vn 0.1010 0.9763 0.1916
vn 0.1431 0.9604 0.2391
vn -0.1250 -0.9702 -0.2074
vn -0.1065 -0.9430 -0.3154
vn -0.2932 -0.8008 -0.5223
vn -0.1570 0.9816 -0.1088
vn -0.0809 0.9929 -0.0870
vn -0.3082 0.8965 -0.3182
vn -0.1724 0.9551 -0.2412
vn -0.3114 0.8942 -0.3215
vn -0.5913 0.8024 -0.0810
vn -0.7912 0.0069 0.6115
vn -0.0504 -0.9842 -0.1699
vn 0.4252 -0.7993 0.4246
vn 0.0286 -0.9987 -0.0419
vn -0.2247 -0.9142 -0.3372
vn 0.0899 -0.9954 0.0342
vn 0.1785 -0.9582 0.2236
vn -0.0026 -0.9998 -0.0196
vn -0.3578 0.8706 -0.3377
vn -0.0002 -0.9899 0.1416
vn -0.0512 -0.9095 0.4125
vn 0.0499 -0.9143 0.4020
vn -0.1922 -0.9666 -0.1694
vn -0.1250 -0.9911 0.0457
vn 0.1766 -0.9521 0.2498
vn -0.4972 -0.5046 0.7058
vn -0.1000 -0.9673 -0.2329
vn -0.1648 0.9848 -0.0558
vn 0.1949 -0.9744 0.1117
vn -0.0048 -0.9892 -0.1466
vn -0.0985 -0.9704 -0.2206
vn -0.1031 -0.9681 -0.2283
vn 0.0899 -0.9954 0.0316
vn -0.0280 -0.9964 -0.0804
vn -0.0438 -0.9855 -0.1642
vn 0.1595 0.9689 0.1890
vn 0.0393 0.9948 0.0941
vn 0.0931 0.9711 0.2195
vn 0.0344 0.9956 0.0869
vn -0.0431 0.9957 0.0820
vn -0.0462 0.9955 0.0831
vn -0.2723 0.9316 -0.2409
vn -0.1023 0.9934 -0.0525
vn -0.6505 -0.7306 0.2074
vn -0.3065 0.9072 -0.2882
vn -0.2280 0.9590 -0.1682
vn -0.1987 0.9743 -0.1057
vn 0.2950 0.0357 0.9548
vn 0.1361 -0.0594 0.9889
vn -0.2653 0.0649 0.9620
vn -0.4208 -0.0456 0.9060
vn -0.8079 -0.0356 0.5883
vn -0.8261 0.0213 0.5631
vn -0.9926 0.0951 0.0753
vn -0.9293 -0.2972 -0.2193
vn -0.8184 0.2757 -0.5042
vn -0.5189 -0.0467 -0.8535
vn -0.7460 -0.0849 -0.6606
vn -0.9325 0.0712 -0.3540
vn -0.9908 -0.0824 -0.1077
vn -0.9664 0.0762 0.2454
vn -0.6773 0.1214 0.7256
vn -0.8429 -0.0707 0.5334
vn -0.4286 -0.2017 0.8807
vn 0.2615 -0.2890 0.9209
vn 0.0898 0.2257 0.9701
vn 0.5357 0.0381 0.8435
vn 0.5098 0.0157 0.8602
vn 0.7322 0.0673 0.6777
vn 0.9370 -0.0843 0.3390
vn 0.9977 0.0659 0.0170
vn 0.8502 -0.0890 -0.5189
vn 0.6864 0.0715 -0.7237
vn 0.0162 -0.0257 -0.9995
vn -0.0240 -0.0547 -0.9982
vn -0.5299 0.0413 -0.8470
vn -0.5603 0.0986 -0.8224
vn -0.2687 -0.0000 -0.9632
vn -0.1063 0.0384 -0.9936
vn 0.9141 -0.0871 -0.3960
vn 0.9962 0.0871 0.0007
vn 0.1011 -0.0581 0.9932
vn -0.0476 -0.0023 0.9989
vn -0.9634 0.0100 0.2680
vn -0.9783 -0.0093 0.2071
vn -0.7507 -0.0003 -0.6607
vn -0.7496 -0.0000 -0.6619
vn 0.0001 1.0000 -0.0000
vn -0.0001 1.0000 0.0001
vn -0.0001 1.0000 0.0002
vn -0.0003 1.0000 0.0012
vn -0.0000 1.0000 0.0001
vn -0.0001 1.0000 -0.0001
vn -0.0002 1.0000 -0.0001
vn -0.0003 1.0000 -0.0002
vn -0.0001 -1.0000 -0.0001
vn -0.0002 -1.0000 -0.0001
vn -0.0001 -1.0000 -0.0000
vn -0.0000 -1.0000 -0.0001
vn -0.0001 -1.0000 -0.0002
vn -0.0003 -1.0000 -0.0001
vn 0.0001 -1.0000 0.0001
vn -0.0000 -1.0000 0.0001
vn -0.0000 -1.0000 0.0002
vn -0.4669 0.1851 -0.8647
vn -0.2623 -0.2338 -0.9362
vn -0.2829 -0.1122 -0.9526
vn -0.3500 -0.3926 -0.8505
vn -0.4700 0.1667 -0.8668
vn 0.7670 0.0635 0.6386
vn 0.7279 -0.1292 0.6733
vn 0.4810 0.0188 0.8765
vn 0.4799 0.0509 0.8759
vn 0.7406 -0.1109 0.6628
vn 0.7592 0.0348 0.6500
vn 0.8207 0.0088 0.5713
vn 0.7744 0.3149 0.5488
vn 0.4030 0.0122 0.9151
vn 0.4003 0.0120 0.9163
vn 0.3476 -0.3834 0.8557
vn 0.4004 -0.0039 0.9163
vn 0.3996 0.0114 0.9166
vn 0.3992 -0.0606 0.9149
vn 0.9999 -0.0000 0.0146
vn 0.9765 -0.2147 -0.0157
vn 0.9822 0.1610 0.0968
vn 0.9719 0.1073 0.2097
vn 0.8122 -0.4918 0.3138
vn 0.6358 -0.7412 0.2154
vn 0.9020 -0.0728 0.4256
vn 0.7530 0.4635 0.4671
vn 0.6496 0.5602 0.5140
vn 0.6611 0.3591 0.6588
vn 0.5886 -0.3286 0.7386
vn 0.2558 -0.8659 0.4298
vn 0.2285 -0.9023 0.3656
vn 0.3653 -0.5276 0.7670
vn 0.2985 0.3899 0.8711
vn 0.1496 0.7161 0.6818
vn 0.0657 0.7626 0.6435
vn -0.0094 0.6610 0.7503
vn -0.1253 0.1342 0.9830
vn -0.1648 -0.7235 0.6704
vn -0.1330 -0.9043 0.4056
vn -0.1880 -0.8414 0.5066
vn -0.4326 -0.2927 0.8528
vn -0.4904 0.4566 0.7424
vn -0.4802 0.6647 0.5724
vn -0.5616 0.6334 0.5323
vn -0.7656 0.2880 0.5752
vn -0.7211 -0.5490 0.4226
vn -0.5865 -0.7465 0.3143
vn -0.8382 -0.4005 0.3701
vn -0.9431 0.1565 0.2934
vn -0.9368 0.3013 0.1776
vn -0.9968 0.0335 0.0730
vn -0.5973 -0.7974 -0.0862
vn -0.2802 -0.9599 -0.0115
vn -0.5460 -0.8334 -0.0855
vn -0.9638 -0.0098 -0.2663
vn -0.6386 0.7250 -0.2579
vn -0.4523 0.8573 -0.2459
vn -0.3941 0.8764 -0.2768
vn -0.4117 0.8346 -0.3659
vn -0.5323 0.6025 -0.5947
vn -0.5264 -0.4115 -0.7440
vn -0.2077 -0.9019 -0.3787
vn -0.1156 -0.9602 -0.2544
vn -0.1306 -0.9383 -0.3202
vn -0.1888 -0.7142 -0.6740
vn -0.1534 0.2427 -0.9579
vn -0.0303 0.7342 -0.6782
vn 0.0393 0.8255 -0.5630
vn 0.1068 0.8115 -0.5745
vn 0.2226 0.6524 -0.7244
vn 0.3982 -0.1136 -0.9102
vn 0.2758 -0.8361 -0.4743
vn 0.2103 -0.9240 -0.3194
vn 0.3231 -0.8414 -0.4332
vn 0.6553 -0.2929 -0.6963
vn 0.6796 0.4566 -0.5741
vn 0.6220 0.6646 -0.4140
vn 0.6889 0.6334 -0.3525
vn 0.8967 0.2879 -0.3362
vn 0.8109 -0.5491 -0.2023
vn 0.8687 -0.4389 -0.2295
vn 0.9915 -0.0000 -0.1299
vn -0.6607 0.7506 -0.0078
vn -0.9794 0.0919 -0.1799
vn -0.8343 -0.4587 -0.3058
vn -0.7194 -0.5585 -0.4131
vn -0.7218 -0.3501 -0.5970
vn -0.6106 0.3500 -0.7104
vn -0.2740 0.8440 -0.4610
vn -0.2710 0.8499 -0.4520
vn -0.3421 0.3267 -0.8811
vn -0.1786 -0.4430 -0.8786
vn -0.0230 -0.6617 -0.7494
vn 0.1078 -0.6288 -0.7701
vn 0.2932 -0.2645 -0.9187
vn 0.3765 0.5763 -0.7253
vn 0.3331 0.7545 -0.5655
vn 0.5519 0.4064 -0.7282
vn 0.7213 -0.1545 -0.6752
vn 0.7963 -0.3011 -0.5247
vn 0.9156 -0.0289 -0.4010
vn 0.7492 0.6430 -0.1588
vn 0.6415 0.7505 -0.1590
vn 0.9931 0.0920 -0.0728
vn 0.8843 -0.4589 0.0857
vn 0.8002 -0.5586 0.2184
vn 0.8489 -0.3501 0.3959
vn 0.7699 0.3499 0.5337
vn 0.3813 0.8440 0.3771
vn 0.3761 0.8499 0.3691
vn 0.5530 0.3266 0.7665
vn 0.3942 -0.4430 0.8052
vn 0.2111 -0.6617 0.7194
vn 0.0897 -0.6288 0.7724
vn -0.0523 -0.2644 0.9630
vn -0.1816 0.5763 0.7968
vn -0.1723 0.8528 0.4931
vn -0.2536 0.7505 0.6102
vn -0.5320 0.0921 0.8417
vn -0.5948 -0.4589 0.6600
vn -0.6514 -0.5585 0.5135
vn -0.8231 -0.3501 0.4472
vn -0.8869 0.3499 0.3017
vn -0.8748 0.3873 0.2911
vn -0.9875 -0.0000 0.1574
vn -0.9899 -0.0000 -0.1417
vn -0.9844 -0.0000 0.1758
vn -0.9075 0.4031 0.1179
vn -0.9588 -0.1578 0.2361
vn -0.8939 -0.3035 0.3300
vn -0.8929 -0.0337 0.4489
vn -0.6355 0.6383 0.4344
vn -0.5600 0.7436 0.3653
vn -0.7690 0.0729 0.6350
vn -0.6147 -0.4665 0.6360
vn -0.5041 -0.5633 0.6547
vn -0.4825 -0.3618 0.7977
vn -0.3950 0.3303 0.8573
vn -0.2294 0.7528 0.6169
vn -0.2529 0.5932 0.7643
vn -0.2052 -0.0815 0.9753
vn -0.0863 -0.4177 0.9045
vn 0.0159 -0.3654 0.9307
vn 0.1280 0.1182 0.9847
vn 0.1634 0.6794 0.7153
vn 0.1925 0.5932 0.7817
vn 0.3452 -0.0816 0.9350
vn 0.4081 -0.4177 0.8118
vn 0.5086 -0.3654 0.7796
vn 0.6323 0.1182 0.7657
vn 0.4319 0.8158 0.3846
vn 0.3083 0.9034 0.2980
vn 0.6722 0.5293 0.5176
vn 0.7867 -0.3933 0.4758
vn 0.6312 -0.7190 0.2908
vn 0.6111 -0.7652 0.2022
vn 0.7315 -0.6643 0.1539
vn 0.9862 -0.1365 0.0941
vn 0.6880 0.7256 -0.0117
vn 0.5335 0.8453 -0.0286
vn 0.7983 0.5932 -0.1037
vn 0.9678 -0.0813 -0.2383
vn 0.8524 -0.4177 -0.3147
vn 0.8316 -0.3654 -0.4181
vn 0.8316 0.1182 -0.5426
vn 0.5216 0.7355 -0.4325
vn 0.5155 0.7436 -0.4257
vn 0.6931 0.0729 -0.7171
vn 0.5396 -0.4665 -0.7009
vn 0.4276 -0.5633 -0.7070
vn 0.3901 -0.3618 -0.8467
vn 0.2965 0.3304 -0.8961
vn 0.1332 0.8017 -0.5827
vn 0.1377 0.7436 -0.6543
vn 0.0948 0.0729 -0.9928
vn -0.0151 -0.4665 -0.8844
vn -0.1065 -0.5633 -0.8194
vn -0.2229 -0.3618 -0.9052
vn -0.3269 0.3303 -0.8855
vn -0.2740 0.7528 -0.5984
vn -0.3616 0.5932 -0.7193
vn -0.5446 -0.0814 -0.8348
vn -0.5785 -0.4177 -0.7006
vn -0.6693 -0.3654 -0.6469
vn -0.7868 0.1182 -0.6058
vn -0.6213 0.6794 -0.3903
vn -0.6889 0.5932 -0.4166
vn -0.9052 -0.0814 -0.4171
vn -0.8626 -0.4177 -0.2854
vn -0.9109 -0.3654 -0.1916
vn -0.9885 0.1181 -0.0943
vn -0.9450 0.3205 -0.0656
vn -0.9999 -0.0000 0.0170
vn 0.9144 -0.0678 0.3991
vn 0.7318 -0.2755 0.6233
vn 0.0718 0.9648 -0.2528
vn 0.1515 -0.9773 -0.1482
vn 0.2107 -0.9588 -0.1905
vn 0.7075 -0.5253 0.4728
vn -0.3567 0.6606 -0.6606
vn 0.1706 -0.9349 -0.3112
vn 0.9081 -0.0857 0.4098
vn 0.9066 -0.0505 0.4190
vn 0.9062 -0.0944 0.4121
vn 0.6592 0.0341 0.7512
vn 0.8805 -0.3927 0.2656
vn 0.8719 0.0349 0.4884
vn 0.9068 -0.0681 0.4161
vn -0.8858 0.0257 -0.4634
vn 0.8987 -0.1122 0.4240
vn 0.0804 -0.9938 -0.0771
vn 0.6939 0.4032 0.5966
vn 0.2518 -0.8947 -0.3688
vn -0.0789 0.9948 0.0640
vn -0.0852 0.9941 0.0670
vn -0.1350 0.9550 0.2640
vn 0.4322 0.6876 0.5835
vn -0.1339 0.9552 0.2639
vn 0.0715 0.9641 -0.2556
vn 0.0029 0.9808 -0.1948
vn 0.0075 0.9893 -0.1458
vn 0.0049 0.9987 -0.0510
vn 0.0073 0.9987 -0.0511
vn -0.0510 0.9957 -0.0770
vn -0.0376 -0.9696 0.2419
vn 0.0093 -0.9945 0.1048
vn 0.0618 -0.9969 -0.0480
vn -0.0026 -0.9921 0.1254
vn 0.0958 -0.9950 0.0264
vn 0.1036 -0.9946 0.0047
vn -0.0723 -0.9874 0.1405
vn -0.0097 0.9223 0.3864
vn 0.1021 0.9734 -0.2053
vn 0.1388 0.9535 -0.2676
vn 0.2901 0.9234 -0.2511
vn -0.0842 -0.9721 0.2189
vn -0.0980 -0.9749 0.1998
vn -0.0403 0.6024 0.7972
vn -0.0465 0.9965 0.0689
vn -0.1338 -0.9652 0.2247
vn -0.1708 -0.9569 0.2351
vn -0.0806 0.9791 0.1867
vn -0.0799 0.9303 0.3581
vn -0.1165 0.8995 0.4211
vn -0.1769 0.8993 0.3999
vn 0.0227 0.8565 0.5156
vn 0.4557 0.6892 0.5633
vn -0.1385 -0.9704 0.1976
vn -0.1429 -0.9660 0.2153
vn -0.0358 -0.9951 -0.0920
vn 0.0897 -0.9725 -0.2148
vn 0.0554 -0.9734 -0.2222
vn 0.0373 -0.9873 -0.1541
vn 0.0003 -0.9944 0.1058
vn 0.3025 -0.9525 -0.0344
vn 0.5400 0.2559 0.8018
vn 0.1685 -0.9268 -0.3356
vn 0.0516 -0.9600 0.2751
vn 0.5822 -0.7983 -0.1543
vn 0.0567 -0.0979 -0.9936
vn -0.0535 0.0983 0.9937
vn -0.0678 -0.0837 -0.9942
vn 0.1739 -0.9329 -0.3154
vn 0.9292 -0.2561 0.2665
vn -0.1518 -0.9692 0.1940
vn -0.3389 -0.7900 0.5109
vn -0.1995 -0.9544 0.2219
vn -0.1461 -0.9849 0.0930
vn -0.2311 -0.9187 0.3203
vn -0.0894 -0.9911 0.0982
vn -0.0245 -0.9954 -0.0928
vn -0.0646 -0.9939 0.0899
vn -0.0277 -0.9996 0.0108
vn -0.1359 -0.9838 0.1173
vn 0.1039 0.9678 -0.2294
vn 0.1360 0.9715 -0.1942
vn 0.1052 0.9919 -0.0715
vn 0.0337 0.9992 -0.0233
vn 0.0362 0.9985 0.0414
vn -0.0255 0.9783 0.2054
vn -0.1083 0.8983 0.4258
vn 0.0432 0.9933 0.1069
vn 0.1057 0.9924 -0.0624
vn 0.1011 0.9946 0.0249
vn -0.1533 0.9108 0.3834
vn -0.0285 0.9590 0.2821
vn -0.0354 0.9627 0.2684
vn -0.1105 0.8719 0.4771
vn 0.6996 0.0679 -0.7113
vn 0.7827 -0.0337 -0.6215
vn 0.9939 -0.0290 -0.1062
vn 0.9982 0.0552 -0.0227
vn 0.8882 -0.0331 0.4582
vn 0.8901 -0.0399 0.4540
vn 0.5906 0.0944 0.8014
vn 0.2831 -0.2479 0.9265
vn 0.1375 0.1103 0.9843
vn -0.3101 0.1969 0.9301
vn -0.2454 -0.1050 0.9637
vn 0.1568 0.0700 0.9851
vn 0.4021 -0.0828 0.9118
vn 0.7325 0.1022 0.6730
vn 0.8808 -0.1037 0.4621
vn 0.9893 -0.1282 -0.0699
vn 0.9905 0.1063 0.0873
vn 0.6508 -0.3565 -0.6704
vn 0.7981 0.1506 -0.5834
vn 0.1357 0.2688 -0.9536
vn 0.4966 0.0102 -0.8679
vn 0.0440 0.0500 -0.9978
vn -0.1750 -0.0764 -0.9816
vn -0.6462 0.0612 -0.7607
vn -0.8467 -0.0690 -0.5275
vn -0.9917 0.0706 -0.1078
vn -0.9379 -0.0966 0.3332
vn -0.8057 0.0609 0.5891
vn -0.4176 0.0127 0.9085
vn -0.3787 0.0570 0.9238
vn -0.6451 -0.0000 0.7641
vn -0.7007 0.0134 0.7133
vn -0.9866 -0.0282 -0.1605
vn -0.9400 0.0282 -0.3399
vn -0.0718 -0.0217 -0.9972
vn 0.0651 0.0228 -0.9976
vn 0.9934 -0.0368 -0.1085
vn 0.9966 0.0419 0.0712
vn 0.0396 -0.0244 0.9989
vn -0.0448 -0.0000 0.9990
vn 0.0002 1.0000 -0.0002
vn 0.0001 1.0000 -0.0001
vn 0.0001 1.0000 -0.0002
vn 0.0001 1.0000 -0.0003
vn -0.0000 1.0000 0.0002
vn 0.0002 1.0000 -0.0000
vn -0.0001 1.0000 -0.0000
vn -0.0002 1.0000 -0.0000
vn -0.0002 1.0000 0.0001
vn -0.0002 1.0000 0.0002
vn -0.0009 1.0000 0.0009
vn -0.0004 1.0000 0.0004
vn 0.0003 -1.0000 -0.0001
vn 0.0007 -1.0000 -0.0003
vn 0.0005 -1.0000 -0.0002
vn 0.0001 -1.0000 0.0002
vn 0.0001 -1.0000 -0.0001
vn 0.0001 -1.0000 -0.0003
vn 0.0001 -1.0000 -0.0002
vn 0.0002 -1.0000 -0.0001
vn -0.0001 -1.0000 0.0001
vn -0.0003 -1.0000 0.0003
vn -0.5680 -0.1743 0.8044
vn -0.5304 0.1129 0.8402
vn -0.7085 0.0951 0.6992
vn -0.5297 0.5648 0.6328
vn -0.5361 0.1843 0.8238
vn 0.3462 -0.4562 -0.8198
vn 0.1830 0.2594 -0.9483
vn 0.5211 -0.0217 -0.8532
vn 0.5212 0.0807 -0.8496
vn 0.2133 0.0046 -0.9770
vn 0.2210 0.1086 -0.9692
vn 0.0760 -0.0986 -0.9922
vn 0.0910 0.2386 -0.9669
vn 0.5822 0.0788 -0.8092
vn 0.5934 0.0112 -0.8048
vn 0.5934 0.0115 -0.8048
vn 0.5933 0.0110 -0.8049
vn 0.5927 -0.0611 -0.8031
s 0
f 23//1 1//1 2//1
f 23//1 2//1 3//1
f 23//1 3//1 4//1
f 23//1 4//1 5//1
f 23//1 5//1 6//1
f 23//1 6//1 7//1
f 7//1 6//1 8//1
f 7//1 8//1 9//1
f 9//1 8//1 10//1
f 9//1 10//1 11//1
f 9//1 11//1 12//1
f 9//1 12//1 13//1
f 14//1 15//1 16//1
f 14//1 16//1 17//1
f 14//1 17//1 18//1
f 14//1 18//1 19//1
f 14//1 19//1 20//1
f 14//1 20//1 21//1
f 21//1 20//1 22//1
f 21//1 22//1 23//1
f 23//1 22//1 24//1
f 23//1 24//1 25//1
f 23//1 25//1 26//1
f 23//1 26//1 27//1
f 23//1 27//1 28//1
f 23//1 28//1 1//1
f 13//1 29//1 9//1
f 9//1 29//1 30//1
f 9//1 30//1 31//1
f 9//1 31//1 32//1
f 9//1 32//1 33//1
f 9//1 33//1 34//1
f 9//1 34//1 35//1
f 9//1 35//1 36//1
f 9//1 36//1 14//1
f 14//1 36//1 37//1
f 14//1 37//1 38//1
f 14//1 38//1 39//1
f 14//1 39//1 40//1
f 14//1 40//1 41//1
f 14//1 41//1 15//1
f 42//2 43//2 44//2
f 42//3 44//3 45//3
f 45//4 44//4 46//4
f 45//5 46//5 47//5
f 45//6 52//6 48//6
f 48//7 52//7 49//7
f 49//8 52//8 50//8
f 49//9 50//9 43//9
f 49//10 43//10 51//10
f 51//11 43//11 42//11
f 45//12 47//12 52//12
f 62//13 110//13 58//13
f 59//14 60//14 110//14
f 54//15 69//15 68//15
f 64//16 68//16 69//16
f 70//17 69//17 54//17
f 106//18 62//18 71//18
f 73//19 74//19 63//19
f 53//20 78//20 66//20
f 61//21 111//21 108//21
f 110//22 67//22 59//22
f 60//23 59//23 79//23
f 60//24 79//24 110//24
f 67//25 110//25 111//25
f 67//26 111//26 58//26
f 67//27 58//27 79//27
f 67//28 79//28 60//28
f 60//29 59//29 67//29
f 58//30 110//30 79//30
f 61//31 108//31 78//31
f 72//32 61//32 78//32
f 58//33 111//33 62//33
f 61//34 62//34 111//34
f 57//35 80//35 56//35
f 62//36 106//36 110//36
f 70//37 80//37 57//37
f 63//38 70//38 57//38
f 54//39 80//39 70//39
f 54//40 112//40 55//40
f 54//41 55//41 80//41
f 80//42 55//42 56//42
f 71//43 56//43 95//43
f 65//44 88//44 53//44
f 76//45 53//45 88//45
f 66//46 65//46 53//46
f 72//47 53//47 75//47
f 74//48 73//48 72//48
f 53//49 76//49 75//49
f 72//50 75//50 74//50
f 72//51 78//51 53//51
f 64//52 83//52 84//52
f 64//53 84//53 68//53
f 98//54 86//54 87//54
f 76//55 88//55 89//55
f 76//56 89//56 77//56
f 77//57 89//57 85//57
f 113//58 55//58 112//58
f 97//59 110//59 106//59
f 109//60 101//60 92//60
f 65//61 87//61 88//61
f 104//62 99//62 105//62
f 95//63 106//63 71//63
f 101//64 106//64 95//64
f 113//65 96//65 55//65
f 106//66 107//66 97//66
f 101//67 95//67 96//67
f 92//68 101//68 96//68
f 91//69 94//69 90//69
f 100//70 90//70 93//70
f 102//71 93//71 96//71
f 66//72 78//72 94//72
f 94//73 78//73 108//73
f 94//74 108//74 109//74
f 92//75 93//75 90//75
f 90//76 94//76 109//76
f 109//77 107//77 101//77
f 109//78 97//78 107//78
f 90//79 109//79 92//79
f 111//80 97//80 109//80
f 110//81 97//81 111//81
f 108//82 111//82 109//82
f 91//83 90//83 100//83
f 104//84 91//84 100//84
f 99//85 102//85 105//85
f 102//86 99//86 100//86
f 99//87 104//87 100//87
f 98//88 87//88 65//88
f 98//89 65//89 91//89
f 94//90 91//90 66//90
f 91//91 65//91 66//91
f 93//92 102//92 100//92
f 91//93 104//93 98//93
f 112//94 54//94 68//94
f 68//95 82//95 112//95
f 103//96 112//96 82//96
f 96//97 113//97 103//97
f 82//98 81//98 103//98
f 96//99 103//99 102//99
f 103//100 113//100 112//100
f 105//101 102//101 103//101
f 107//102 106//102 101//102
f 95//103 56//103 55//103
f 95//104 55//104 96//104
f 96//105 93//105 92//105
f 82//106 68//106 119//106
f 121//107 83//107 120//107
f 83//108 121//108 84//108
f 68//109 84//109 121//109
f 119//110 68//110 121//110
f 118//111 82//111 119//111
f 117//112 82//112 118//112
f 117//113 81//113 82//113
f 122//114 81//114 117//114
f 86//115 81//115 122//115
f 124//116 86//116 123//116
f 87//117 86//117 124//117
f 87//118 124//118 116//118
f 116//119 88//119 87//119
f 115//120 88//120 116//120
f 114//121 89//121 115//121
f 115//122 89//122 88//122
f 85//123 89//123 114//123
f 129//124 85//124 114//124
f 86//125 122//125 123//125
f 123//126 122//126 125//126
f 125//127 122//127 126//127
f 125//128 126//128 127//128
f 127//129 126//129 128//129
f 127//130 128//130 129//130
f 129//131 128//131 130//131
f 129//132 130//132 120//132
f 129//133 120//133 83//133
f 129//134 83//134 85//134
f 9//135 45//135 7//135
f 7//136 45//136 48//136
f 7//137 48//137 23//137
f 23//138 48//138 49//138
f 23//139 49//139 21//139
f 21//140 49//140 51//140
f 21//141 51//141 14//141
f 14//142 51//142 42//142
f 14//143 42//143 9//143
f 9//144 42//144 45//144
f 131//145 122//145 117//145
f 119//146 121//146 132//146
f 132//147 121//147 120//147
f 133//148 126//148 122//148
f 133//149 122//149 131//149
f 140//150 129//150 134//150
f 134//151 129//151 135//151
f 135//152 129//152 114//152
f 135//153 114//153 136//153
f 136//154 114//154 137//154
f 137//155 114//155 115//155
f 138//156 123//156 125//156
f 138//157 125//157 139//157
f 139//158 125//158 127//158
f 139//159 127//159 140//159
f 140//160 127//160 129//160
f 137//161 115//161 116//161
f 116//162 124//162 141//162
f 141//163 124//163 138//163
f 138//164 124//164 123//164
f 98//165 103//165 81//165
f 98//166 104//166 103//166
f 103//167 104//167 105//167
f 81//168 86//168 98//168
f 64//169 77//169 83//169
f 83//170 77//170 85//170
f 69//171 76//171 64//171
f 64//172 76//172 77//172
f 76//173 69//173 75//173
f 75//174 69//174 70//174
f 75//175 70//175 74//175
f 74//176 70//176 63//176
f 57//177 73//177 63//177
f 56//178 72//178 57//178
f 57//179 72//179 73//179
f 71//180 61//180 56//180
f 56//181 61//181 72//181
f 61//182 71//182 62//182
f 142//183 135//183 136//183
f 142//184 134//184 135//184
f 44//185 134//185 143//185
f 143//186 134//186 142//186
f 143//187 142//187 47//187
f 44//188 140//188 134//188
f 50//189 138//189 43//189
f 52//190 116//190 141//190
f 52//191 141//191 50//191
f 50//192 141//192 138//192
f 142//193 136//193 47//193
f 47//194 136//194 137//194
f 139//195 140//195 43//195
f 43//196 140//196 44//196
f 43//197 138//197 139//197
f 47//198 137//198 52//198
f 52//199 137//199 116//199
f 44//200 143//200 46//200
f 46//201 143//201 47//201
f 144//202 131//202 117//202
f 144//203 133//203 131//203
f 145//204 128//204 146//204
f 146//205 128//205 147//205
f 148//206 149//206 133//206
f 150//207 133//207 151//207
f 151//208 133//208 152//208
f 153//209 126//209 150//209
f 150//210 126//210 133//210
f 154//211 126//211 155//211
f 155//212 126//212 153//212
f 147//213 128//213 156//213
f 156//214 128//214 154//214
f 154//215 128//215 126//215
f 157//216 128//216 145//216
f 158//217 119//217 159//217
f 159//218 119//218 160//218
f 161//219 130//219 162//219
f 162//220 130//220 157//220
f 157//221 130//221 128//221
f 163//222 120//222 164//222
f 164//223 120//223 161//223
f 161//224 120//224 130//224
f 165//225 118//225 166//225
f 166//226 118//226 158//226
f 158//227 118//227 119//227
f 167//228 118//228 168//228
f 168//229 118//229 165//229
f 152//230 133//230 169//230
f 169//231 133//231 149//231
f 170//232 118//232 167//232
f 171//233 117//233 172//233
f 172//234 117//234 170//234
f 170//235 117//235 118//235
f 133//236 144//236 148//236
f 148//237 144//237 117//237
f 148//238 117//238 173//238
f 173//239 117//239 171//239
f 174//240 120//240 163//240
f 175//241 132//241 176//241
f 176//242 132//242 177//242
f 177//243 132//243 120//243
f 177//244 120//244 178//244
f 178//245 120//245 174//245
f 179//246 132//246 180//246
f 180//247 132//247 175//247
f 160//248 119//248 179//248
f 179//249 119//249 132//249
f 1//250 173//250 2//250
f 2//251 173//251 171//251
f 2//251 171//251 3//251
f 3//252 171//252 172//252
f 3//252 172//252 4//252
f 4//253 172//253 170//253
f 4//253 170//253 5//253
f 5//254 170//254 167//254
f 5//254 167//254 6//254
f 6//255 167//255 168//255
f 6//255 168//255 8//255
f 8//256 168//256 165//256
f 8//256 165//256 10//256
f 10//257 165//257 166//257
f 10//257 166//257 11//257
f 11//258 166//258 158//258
f 11//258 158//258 12//258
f 12//259 158//259 159//259
f 12//259 159//259 13//259
f 13//260 159//260 160//260
f 13//260 160//260 29//260
f 29//261 160//261 179//261
f 29//261 179//261 30//261
f 30//262 179//262 180//262
f 30//262 180//262 31//262
f 31//263 180//263 175//263
f 31//263 175//263 32//263
f 32//264 175//264 176//264
f 32//264 176//264 33//264
f 33//265 176//265 177//265
f 33//265 177//265 34//265
f 34//266 177//266 178//266
f 34//267 178//267 35//267
f 35//268 178//268 174//268
f 35//268 174//268 36//268
f 36//269 174//269 163//269
f 36//269 163//269 37//269
f 37//270 163//270 164//270
f 37//270 164//270 38//270
f 38//271 164//271 161//271
f 38//271 161//271 39//271
f 39//272 161//272 162//272
f 39//272 162//272 40//272
f 40//273 162//273 157//273
f 40//273 157//273 41//273
f 41//274 157//274 145//274
f 41//274 145//274 15//274
f 15//275 145//275 146//275
f 15//275 146//275 16//275
f 16//276 146//276 147//276
f 16//276 147//276 17//276
f 17//277 147//277 156//277
f 17//277 156//277 18//277
f 18//278 156//278 154//278
f 18//278 154//278 19//278
f 19//279 154//279 155//279
f 19//279 155//279 20//279
f 20//280 155//280 153//280
f 20//280 153//280 22//280
f 22//281 153//281 150//281
f 22//281 150//281 24//281
f 24//282 150//282 151//282
f 24//282 151//282 25//282
f 25//283 151//283 152//283
f 25//283 152//283 26//283
f 26//284 152//284 169//284
f 26//284 169//284 27//284
f 27//285 169//285 149//285
f 27//285 149//285 28//285
f 28//286 149//286 148//286
f 28//286 148//286 1//286
f 1//250 148//250 173//250
f 181//1 16//1 17//1
f 181//1 17//1 18//1
f 181//1 18//1 19//1
f 181//1 19//1 20//1
f 181//1 20//1 21//1
f 21//1 22//1 182//1
f 182//1 22//1 24//1
f 182//1 24//1 25//1
f 183//1 34//1 35//1
f 183//1 35//1 36//1
f 183//1 36//1 37//1
f 183//1 37//1 38//1
f 183//1 38//1 181//1
f 181//1 38//1 39//1
f 181//1 39//1 40//1
f 181//1 40//1 41//1
f 181//1 41//1 15//1
f 181//1 15//1 16//1
f 184//1 10//1 11//1
f 184//1 11//1 183//1
f 183//1 11//1 12//1
f 183//1 12//1 13//1
f 183//1 13//1 29//1
f 183//1 29//1 30//1
f 183//1 30//1 31//1
f 183//1 31//1 32//1
f 183//1 32//1 33//1
f 183//1 33//1 34//1
f 25//1 26//1 182//1
f 182//1 26//1 27//1
f 182//1 27//1 28//1
f 182//1 28//1 1//1
f 182//1 1//1 184//1
f 184//1 1//1 2//1
f 184//1 2//1 3//1
f 184//1 3//1 4//1
f 184//1 4//1 5//1
f 184//1 5//1 6//1
f 184//1 6//1 8//1
f 184//1 8//1 10//1
f 204//287 185//287 186//287
f 186//287 185//287 187//287
f 186//287 187//287 188//287
f 186//287 188//287 189//287
f 186//287 189//287 190//287
f 186//287 190//287 191//287
f 186//287 191//287 192//287
f 219//287 193//287 194//287
f 219//287 194//287 195//287
f 195//287 194//287 196//287
f 195//287 196//287 197//287
f 195//287 197//287 198//287
f 195//287 198//287 199//287
f 199//287 200//287 195//287
f 195//287 200//287 201//287
f 195//287 201//287 202//287
f 195//287 202//287 51//287
f 51//287 202//287 203//287
f 51//287 203//287 204//287
f 204//287 203//287 205//287
f 204//287 205//287 206//287
f 204//287 206//287 207//287
f 204//287 207//287 208//287
f 208//287 209//287 204//287
f 204//287 209//287 210//287
f 204//287 210//287 211//287
f 204//287 211//287 212//287
f 204//287 212//287 213//287
f 204//287 213//287 214//287
f 204//287 214//287 215//287
f 204//287 215//287 46//287
f 204//287 46//287 185//287
f 192//287 216//287 186//287
f 186//287 216//287 217//287
f 186//287 217//287 218//287
f 186//287 218//287 219//287
f 219//287 218//287 220//287
f 219//287 220//287 221//287
f 219//287 221//287 222//287
f 219//287 222//287 223//287
f 219//287 223//287 224//287
f 219//287 224//287 193//287
f 235//288 236//288 229//288
f 247//289 281//289 240//289
f 245//290 246//290 239//290
f 248//291 247//291 252//291
f 237//292 227//292 226//292
f 227//293 242//293 241//293
f 242//294 247//294 240//294
f 229//295 253//295 235//295
f 236//296 235//296 254//296
f 236//297 254//297 229//297
f 253//298 229//298 281//298
f 253//299 281//299 234//299
f 253//300 234//300 254//300
f 253//301 254//301 236//301
f 236//302 235//302 253//302
f 234//303 229//303 254//303
f 247//304 242//304 252//304
f 234//305 281//305 233//305
f 229//306 234//306 233//306
f 247//307 233//307 281//307
f 232//308 255//308 230//308
f 255//309 244//309 231//309
f 255//310 231//310 230//310
f 230//311 231//311 267//311
f 238//312 228//312 232//312
f 246//313 245//313 244//313
f 246//314 244//314 228//314
f 243//315 244//315 245//315
f 263//316 231//316 244//316
f 244//317 255//317 228//317
f 228//318 255//318 232//318
f 237//319 256//319 227//319
f 256//320 251//320 225//320
f 237//321 251//321 256//321
f 227//322 264//322 226//322
f 256//323 252//323 227//323
f 227//324 252//324 242//324
f 225//325 252//325 256//325
f 249//326 248//326 250//326
f 248//327 252//327 250//327
f 252//328 225//328 250//328
f 233//329 267//329 229//329
f 274//330 257//330 258//330
f 239//331 259//331 245//331
f 251//332 237//332 260//332
f 282//333 270//333 272//333
f 270//334 282//334 269//334
f 275//335 231//335 283//335
f 283//336 231//336 263//336
f 267//337 275//337 277//337
f 275//338 267//338 231//338
f 277//339 275//339 276//339
f 267//340 277//340 266//340
f 229//341 267//341 266//341
f 279//342 269//342 282//342
f 279//343 282//343 280//343
f 280//344 282//344 278//344
f 279//345 268//345 269//345
f 278//346 241//346 280//346
f 241//347 242//347 280//347
f 280//348 268//348 279//348
f 276//349 265//349 277//349
f 240//350 265//350 280//350
f 240//351 266//351 277//351
f 240//352 281//352 266//352
f 268//353 280//353 276//353
f 265//354 276//354 280//354
f 280//355 242//355 240//355
f 266//356 281//356 229//356
f 261//357 262//357 271//357
f 269//358 273//358 270//358
f 272//359 278//359 282//359
f 272//360 264//360 278//360
f 262//361 264//361 271//361
f 264//362 262//362 226//362
f 264//363 241//363 278//363
f 241//364 264//364 227//364
f 271//365 264//365 272//365
f 257//366 244//366 243//366
f 244//367 257//367 263//367
f 257//368 274//368 284//368
f 257//369 284//369 263//369
f 283//370 284//370 273//370
f 273//371 284//371 274//371
f 283//372 276//372 275//372
f 283//373 263//373 284//373
f 277//374 265//374 240//374
f 276//375 283//375 268//375
f 268//376 283//376 269//376
f 269//377 283//377 273//377
f 259//378 292//378 291//378
f 291//379 245//379 259//379
f 245//380 291//380 293//380
f 245//381 293//381 243//381
f 290//382 257//382 293//382
f 293//383 257//383 243//383
f 289//384 257//384 290//384
f 289//385 258//385 257//385
f 258//386 289//386 294//386
f 302//387 258//387 294//387
f 261//388 288//388 287//388
f 287//389 262//389 261//389
f 262//390 287//390 295//390
f 226//391 262//391 295//391
f 286//392 237//392 226//392
f 286//393 226//393 295//393
f 285//394 237//394 286//394
f 260//395 285//395 296//395
f 285//396 260//396 237//396
f 260//397 296//397 259//397
f 259//398 296//398 292//398
f 292//399 296//399 297//399
f 297//400 296//400 298//400
f 297//401 298//401 299//401
f 299//402 298//402 300//402
f 299//403 300//403 301//403
f 301//404 300//404 302//404
f 302//405 300//405 288//405
f 302//406 288//406 261//406
f 302//407 261//407 258//407
f 21//408 51//408 181//408
f 181//409 51//409 204//409
f 181//410 204//410 183//410
f 183//411 204//411 186//411
f 183//412 186//412 184//412
f 184//413 186//413 219//413
f 184//414 219//414 195//414
f 184//415 195//415 182//415
f 182//416 195//416 21//416
f 21//417 195//417 51//417
f 303//1 289//1 304//1
f 304//1 289//1 305//1
f 305//1 289//1 306//1
f 306//1 289//1 307//1
f 307//1 289//1 308//1
f 308//418 289//418 309//418
f 309//1 289//1 290//1
f 309//1 290//1 310//1
f 310//1 290//1 311//1
f 311//1 290//1 312//1
f 312//1 290//1 313//1
f 313//419 290//419 293//419
f 313//419 293//419 314//419
f 314//419 293//419 315//419
f 315//419 293//419 316//419
f 316//419 293//419 317//419
f 317//419 293//419 318//419
f 318//420 293//420 319//420
f 319//421 293//421 320//421
f 320//422 293//422 291//422
f 320//1 291//1 321//1
f 321//1 291//1 322//1
f 322//1 291//1 323//1
f 323//1 291//1 324//1
f 324//422 291//422 325//422
f 325//1 291//1 292//1
f 325//1 292//1 326//1
f 326//1 292//1 327//1
f 327//1 292//1 328//1
f 328//1 292//1 329//1
f 329//1 292//1 297//1
f 329//1 297//1 330//1
f 330//1 297//1 331//1
f 331//1 297//1 332//1
f 332//1 297//1 333//1
f 333//1 297//1 334//1
f 334//1 297//1 335//1
f 335//1 297//1 299//1
f 335//1 299//1 131//1
f 131//1 299//1 336//1
f 336//1 299//1 337//1
f 337//1 299//1 338//1
f 338//1 299//1 339//1
f 339//1 299//1 340//1
f 340//1 299//1 341//1
f 341//1 299//1 342//1
f 342//1 299//1 301//1
f 342//1 301//1 343//1
f 343//1 301//1 344//1
f 344//1 301//1 345//1
f 345//1 301//1 346//1
f 346//1 301//1 347//1
f 347//1 301//1 348//1
f 348//1 301//1 349//1
f 349//1 301//1 302//1
f 349//1 302//1 350//1
f 350//1 302//1 351//1
f 351//1 302//1 352//1
f 352//1 302//1 353//1
f 353//1 302//1 354//1
f 354//423 302//423 294//423
f 354//423 294//423 355//423
f 355//423 294//423 356//423
f 356//424 294//424 357//424
f 357//425 294//425 303//425
f 303//423 294//423 289//423
f 358//287 300//287 359//287
f 359//287 300//287 360//287
f 360//287 300//287 361//287
f 361//287 300//287 298//287
f 361//287 298//287 362//287
f 362//287 298//287 363//287
f 363//287 298//287 364//287
f 364//287 298//287 365//287
f 365//287 298//287 366//287
f 366//287 298//287 367//287
f 367//287 298//287 368//287
f 368//426 298//426 296//426
f 368//427 296//427 369//427
f 369//426 296//426 370//426
f 370//428 296//428 371//428
f 371//428 296//428 372//428
f 372//287 296//287 373//287
f 373//429 296//429 374//429
f 374//429 296//429 375//429
f 375//429 296//429 376//429
f 376//430 296//430 377//430
f 377//429 296//429 285//429
f 377//287 285//287 378//287
f 378//287 285//287 379//287
f 379//287 285//287 380//287
f 380//287 285//287 381//287
f 381//287 285//287 382//287
f 382//287 285//287 383//287
f 383//287 285//287 384//287
f 384//287 285//287 286//287
f 384//287 286//287 385//287
f 385//287 286//287 386//287
f 386//287 286//287 387//287
f 387//287 286//287 388//287
f 388//428 286//428 295//428
f 388//428 295//428 389//428
f 389//428 295//428 390//428
f 390//428 295//428 391//428
f 391//428 295//428 135//428
f 135//428 295//428 392//428
f 392//428 295//428 393//428
f 393//431 295//431 394//431
f 295//428 287//428 394//428
f 394//287 287//287 395//287
f 395//287 287//287 396//287
f 396//287 287//287 397//287
f 397//287 287//287 398//287
f 398//287 287//287 288//287
f 398//432 288//432 399//432
f 399//433 288//433 400//433
f 400//433 288//433 401//433
f 401//433 288//433 402//433
f 402//433 288//433 403//433
f 403//433 288//433 404//433
f 404//433 288//433 405//433
f 405//434 288//434 300//434
f 405//287 300//287 406//287
f 406//287 300//287 407//287
f 407//287 300//287 408//287
f 408//287 300//287 409//287
f 409//287 300//287 410//287
f 410//287 300//287 411//287
f 411//287 300//287 358//287
f 274//435 261//435 271//435
f 274//436 271//436 272//436
f 274//437 272//437 273//437
f 270//438 273//438 272//438
f 258//439 261//439 274//439
f 259//440 239//440 260//440
f 260//441 239//441 251//441
f 246//442 225//442 239//442
f 239//443 225//443 251//443
f 225//444 246//444 228//444
f 225//445 228//445 250//445
f 250//446 228//446 249//446
f 238//447 249//447 228//447
f 232//448 248//448 238//448
f 232//449 230//449 247//449
f 248//450 249//450 238//450
f 232//451 247//451 248//451
f 230//452 267//452 247//452
f 247//453 267//453 233//453
f 142//454 135//454 412//454
f 412//455 135//455 392//455
f 412//456 392//456 393//456
f 412//457 393//457 394//457
f 412//458 394//458 413//458
f 413//459 394//459 395//459
f 413//460 395//460 396//460
f 413//461 396//461 397//461
f 413//462 397//462 398//462
f 413//463 398//463 399//463
f 413//464 399//464 400//464
f 413//465 400//465 414//465
f 414//466 400//466 401//466
f 414//467 401//467 402//467
f 414//468 402//468 403//468
f 414//469 403//469 404//469
f 414//470 404//470 405//470
f 414//471 405//471 406//471
f 414//472 406//472 407//472
f 414//473 407//473 408//473
f 414//474 408//474 415//474
f 415//475 408//475 409//475
f 415//476 409//476 410//476
f 415//477 410//477 411//477
f 415//478 411//478 358//478
f 415//479 358//479 359//479
f 415//480 359//480 360//480
f 415//481 360//481 361//481
f 415//482 361//482 416//482
f 416//483 361//483 362//483
f 416//484 362//484 363//484
f 416//485 363//485 364//485
f 416//486 364//486 365//486
f 416//487 365//487 417//487
f 417//488 365//488 366//488
f 417//489 366//489 367//489
f 417//490 367//490 368//490
f 417//491 368//491 369//491
f 417//492 369//492 370//492
f 417//493 370//493 371//493
f 417//494 371//494 372//494
f 417//495 372//495 373//495
f 417//496 373//496 374//496
f 417//497 374//497 375//497
f 417//498 375//498 418//498
f 418//499 375//499 376//499
f 418//500 376//500 377//500
f 418//501 377//501 378//501
f 418//502 378//502 379//502
f 418//503 379//503 380//503
f 418//504 380//504 381//504
f 418//505 381//505 382//505
f 418//506 382//506 383//506
f 418//507 383//507 384//507
f 418//508 384//508 419//508
f 419//509 384//509 385//509
f 419//510 385//510 386//510
f 419//511 386//511 387//511
f 419//512 387//512 388//512
f 419//513 388//513 389//513
f 419//514 389//514 390//514
f 419//515 390//515 391//515
f 419//516 391//516 142//516
f 142//517 391//517 135//517
f 420//287 417//287 423//287
f 421//287 419//287 143//287
f 143//287 419//287 142//287
f 143//287 142//287 422//287
f 423//287 418//287 421//287
f 423//287 417//287 418//287
f 421//287 418//287 419//287
f 425//287 415//287 424//287
f 415//287 416//287 424//287
f 424//287 416//287 420//287
f 420//287 416//287 417//287
f 425//287 414//287 415//287
f 142//287 412//287 422//287
f 412//287 413//287 422//287
f 422//287 413//287 425//287
f 425//287 413//287 414//287
f 46//518 422//518 185//518
f 185//519 422//519 187//519
f 187//520 422//520 188//520
f 188//521 422//521 189//521
f 189//522 422//522 190//522
f 190//523 422//523 191//523
f 191//524 422//524 425//524
f 191//525 425//525 192//525
f 192//526 425//526 216//526
f 216//527 425//527 217//527
f 217//528 425//528 218//528
f 218//529 425//529 220//529
f 220//530 425//530 221//530
f 221//531 425//531 222//531
f 222//532 425//532 424//532
f 222//533 424//533 223//533
f 223//534 424//534 224//534
f 224//535 424//535 193//535
f 193//536 424//536 194//536
f 194//537 424//537 420//537
f 194//538 420//538 196//538
f 196//539 420//539 197//539
f 197//540 420//540 198//540
f 198//541 420//541 199//541
f 199//542 420//542 200//542
f 200//543 420//543 201//543
f 201//544 420//544 423//544
f 201//545 423//545 202//545
f 202//546 423//546 203//546
f 203//547 423//547 205//547
f 205//548 423//548 206//548
f 206//549 423//549 207//549
f 207//550 423//550 208//550
f 208//551 423//551 209//551
f 209//552 423//552 421//552
f 209//553 421//553 210//553
f 210//554 421//554 211//554
f 211//555 421//555 212//555
f 212//556 421//556 213//556
f 213//557 421//557 214//557
f 214//558 421//558 215//558
f 215//559 421//559 143//559
f 215//560 143//560 46//560
f 46//561 143//561 422//561
f 144//562 131//562 426//562
f 426//563 131//563 336//563
f 426//564 336//564 337//564
f 426//565 337//565 338//565
f 426//566 338//566 339//566
f 426//567 339//567 427//567
f 427//568 339//568 340//568
f 427//569 340//569 341//569
f 427//570 341//570 342//570
f 427//571 342//571 343//571
f 427//572 343//572 344//572
f 427//573 344//573 345//573
f 427//574 345//574 428//574
f 428//575 345//575 346//575
f 428//576 346//576 347//576
f 428//577 347//577 348//577
f 428//578 348//578 349//578
f 428//579 349//579 350//579
f 428//580 350//580 429//580
f 429//581 350//581 351//581
f 429//582 351//582 352//582
f 429//583 352//583 353//583
f 429//584 353//584 354//584
f 429//585 354//585 355//585
f 429//586 355//586 430//586
f 430//587 355//587 356//587
f 430//588 356//588 357//588
f 430//589 357//589 303//589
f 430//590 303//590 304//590
f 430//591 304//591 305//591
f 430//592 305//592 306//592
f 430//593 306//593 307//593
f 430//594 307//594 308//594
f 430//595 308//595 431//595
f 431//596 308//596 309//596
f 431//597 309//597 310//597
f 431//598 310//598 311//598
f 431//599 311//599 312//599
f 431//600 312//600 313//600
f 431//601 313//601 432//601
f 432//602 313//602 314//602
f 432//603 314//603 315//603
f 432//604 315//604 316//604
f 432//605 316//605 317//605
f 432//606 317//606 318//606
f 432//607 318//607 319//607
f 432//608 319//608 433//608
f 433//609 319//609 320//609
f 433//610 320//610 321//610
f 433//611 321//611 322//611
f 433//612 322//612 323//612
f 433//613 323//613 324//613
f 433//614 324//614 325//614
f 433//615 325//615 434//615
f 434//616 325//616 326//616
f 434//617 326//617 327//617
f 434//618 327//618 328//618
f 434//619 328//619 329//619
f 434//620 329//620 330//620
f 434//621 330//621 435//621
f 435//622 330//622 331//622
f 435//623 331//623 332//623
f 435//624 332//624 333//624
f 435//625 333//625 334//625
f 435//626 334//626 335//626
f 435//627 335//627 144//627
f 144//628 335//628 131//628
f 155//1 434//1 153//1
f 153//1 434//1 150//1
f 156//1 433//1 154//1
f 154//1 433//1 155//1
f 155//1 433//1 434//1
f 158//1 428//1 159//1
f 159//1 428//1 429//1
f 159//1 429//1 160//1
f 148//1 149//1 435//1
f 145//1 432//1 146//1
f 146//1 432//1 147//1
f 162//1 432//1 157//1
f 157//1 432//1 145//1
f 150//1 434//1 151//1
f 151//1 434//1 152//1
f 432//1 433//1 147//1
f 147//1 433//1 156//1
f 164//1 431//1 161//1
f 161//1 431//1 162//1
f 162//1 431//1 432//1
f 166//1 428//1 158//1
f 170//1 427//1 167//1
f 167//1 427//1 168//1
f 434//1 435//1 152//1
f 152//1 435//1 169//1
f 169//1 435//1 149//1
f 174//1 431//1 163//1
f 163//1 431//1 164//1
f 168//1 427//1 165//1
f 165//1 427//1 428//1
f 165//1 428//1 166//1
f 171//1 426//1 172//1
f 172//1 426//1 427//1
f 172//1 427//1 170//1
f 435//1 144//1 148//1
f 148//1 144//1 426//1
f 148//1 426//1 173//1
f 173//1 426//1 171//1
f 178//1 430//1 174//1
f 174//1 430//1 431//1
f 176//1 430//1 177//1
f 177//1 430//1 178//1
f 180//1 430//1 175//1
f 175//1 430//1 176//1
f 160//1 429//1 179//1
f 179//1 429//1 180//1
f 180//1 429//1 430//1
f 436//1 19//1 20//1
f 436//1 20//1 22//1
f 436//1 22//1 24//1
f 436//1 24//1 25//1
f 436//1 25//1 26//1
f 436//1 26//1 27//1
f 436//1 27//1 437//1
f 437//1 27//1 28//1
f 439//1 37//1 438//1
f 438//1 37//1 38//1
f 438//1 38//1 39//1
f 438//1 39//1 40//1
f 438//1 40//1 41//1
f 438//1 41//1 15//1
f 438//1 15//1 16//1
f 438//1 16//1 17//1
f 438//1 17//1 436//1
f 436//1 17//1 18//1
f 436//1 18//1 19//1
f 439//1 13//1 29//1
f 439//1 29//1 30//1
f 439//1 30//1 31//1
f 439//1 31//1 32//1
f 439//1 32//1 33//1
f 439//1 33//1 34//1
f 439//1 34//1 35//1
f 439//1 35//1 36//1
f 439//1 36//1 37//1
f 28//1 1//1 437//1
f 437//1 1//1 2//1
f 437//1 2//1 3//1
f 437//1 3//1 4//1
f 437//1 4//1 5//1
f 437//1 5//1 6//1
f 437//1 6//1 7//1
f 7//1 8//1 439//1
f 439//1 8//1 10//1
f 439//1 10//1 11//1
f 439//1 11//1 12//1
f 439//1 12//1 13//1
f 441//287 215//287 46//287
f 441//287 46//287 440//287
f 440//287 46//287 185//287
f 440//287 185//287 187//287
f 440//287 187//287 188//287
f 440//287 188//287 189//287
f 442//287 207//287 441//287
f 441//287 207//287 208//287
f 441//287 208//287 209//287
f 441//287 209//287 210//287
f 441//287 210//287 211//287
f 441//287 211//287 212//287
f 441//287 212//287 213//287
f 441//287 213//287 214//287
f 441//287 214//287 215//287
f 443//287 199//287 442//287
f 442//287 199//287 200//287
f 442//287 200//287 201//287
f 442//287 201//287 202//287
f 442//287 202//287 203//287
f 442//287 203//287 205//287
f 442//287 205//287 206//287
f 442//287 206//287 207//287
f 443//287 223//287 224//287
f 443//287 224//287 193//287
f 443//287 193//287 194//287
f 443//287 194//287 196//287
f 443//287 196//287 197//287
f 443//287 197//287 198//287
f 443//287 198//287 199//287
f 189//287 190//287 440//287
f 440//287 190//287 191//287
f 440//287 191//287 192//287
f 440//287 192//287 216//287
f 440//287 216//287 217//287
f 440//287 217//287 218//287
f 440//287 218//287 220//287
f 440//287 220//287 48//287
f 48//287 220//287 221//287
f 48//287 221//287 443//287
f 443//287 221//287 222//287
f 443//287 222//287 223//287
f 453//629 454//629 450//629
f 462//630 450//630 463//630
f 465//631 466//631 457//631
f 468//632 467//632 461//632
f 456//633 468//633 469//633
f 473//634 462//634 463//634
f 473//635 463//635 474//635
f 461//636 467//636 459//636
f 450//637 462//637 453//637
f 454//638 453//638 475//638
f 454//639 475//639 450//639
f 473//640 458//640 462//640
f 462//641 458//641 449//641
f 462//642 449//642 475//642
f 462//643 475//643 454//643
f 454//644 453//644 462//644
f 449//645 450//645 475//645
f 468//646 461//646 477//646
f 449//647 458//647 459//647
f 467//648 449//648 459//648
f 451//649 476//649 445//649
f 476//650 451//650 452//650
f 452//651 448//651 447//651
f 449//652 464//652 450//652
f 451//653 448//653 452//653
f 466//654 465//654 445//654
f 446//655 476//655 456//655
f 466//656 445//656 446//656
f 444//657 451//657 445//657
f 465//658 444//658 445//658
f 446//659 445//659 476//659
f 455//660 472//660 471//660
f 477//661 471//661 470//661
f 460//662 477//662 461//662
f 471//663 477//663 492//663
f 469//664 468//664 470//664
f 468//665 477//665 470//665
f 492//666 455//666 471//666
f 447//667 464//667 449//667
f 479//668 478//668 480//668
f 457//669 481//669 482//669
f 457//670 482//670 465//670
f 455//671 486//671 472//671
f 472//672 486//672 483//672
f 498//673 497//673 489//673
f 444//674 487//674 451//674
f 492//675 485//675 455//675
f 488//676 493//676 484//676
f 505//677 448//677 451//677
f 448//678 505//678 497//678
f 497//679 498//679 447//679
f 447//680 498//680 464//680
f 464//681 498//681 499//681
f 464//682 499//682 450//682
f 501//683 490//683 500//683
f 502//684 490//684 501//684
f 500//685 460//685 501//685
f 460//686 461//686 501//686
f 501//687 461//687 503//687
f 503//688 502//688 501//688
f 497//689 502//689 503//689
f 489//690 459//690 498//690
f 499//691 498//691 459//691
f 503//692 459//692 489//692
f 497//693 503//693 489//693
f 458//694 499//694 459//694
f 458//695 473//695 474//695
f 458//696 474//696 463//696
f 458//697 463//697 450//697
f 503//698 461//698 459//698
f 499//699 458//699 450//699
f 484//700 485//700 488//700
f 495//701 494//701 491//701
f 494//702 500//702 491//702
f 494//703 488//703 500//703
f 491//704 500//704 490//704
f 485//705 492//705 488//705
f 488//706 460//706 500//706
f 488//707 492//707 460//707
f 460//708 492//708 477//708
f 488//709 494//709 493//709
f 444//710 465//710 478//710
f 504//711 478//711 479//711
f 504//712 479//712 496//712
f 444//713 478//713 504//713
f 487//714 444//714 504//714
f 451//715 487//715 505//715
f 497//716 505//716 502//716
f 487//717 496//717 505//717
f 487//718 504//718 496//718
f 496//719 495//719 490//719
f 447//720 448//720 497//720
f 502//721 505//721 490//721
f 490//722 505//722 496//722
f 490//723 495//723 491//723
f 481//724 514//724 513//724
f 513//725 482//725 481//725
f 482//726 513//726 465//726
f 515//727 465//727 513//727
f 512//728 478//728 515//728
f 515//729 478//729 465//729
f 511//730 478//730 512//730
f 511//731 480//731 478//731
f 510//732 480//732 511//732
f 516//733 480//733 510//733
f 484//734 509//734 508//734
f 508//735 485//735 484//735
f 485//736 508//736 517//736
f 455//737 485//737 517//737
f 507//738 455//738 517//738
f 506//739 486//739 507//739
f 507//740 486//740 455//740
f 483//741 506//741 518//741
f 506//742 483//742 486//742
f 483//743 518//743 481//743
f 481//744 518//744 514//744
f 514//745 518//745 519//745
f 519//746 518//746 520//746
f 519//747 520//747 521//747
f 521//748 520//748 522//748
f 521//749 522//749 523//749
f 523//750 522//750 509//750
f 523//751 509//751 516//751
f 516//752 509//752 484//752
f 516//753 484//753 480//753
f 7//754 48//754 437//754
f 437//755 48//755 443//755
f 437//756 443//756 436//756
f 436//757 443//757 442//757
f 436//758 442//758 438//758
f 438//759 442//759 441//759
f 438//760 441//760 439//760
f 439//761 441//761 440//761
f 439//762 440//762 7//762
f 7//763 440//763 48//763
f 313//764 516//764 314//764
f 314//765 516//765 315//765
f 315//765 516//765 316//765
f 316//765 516//765 317//765
f 317//766 516//766 318//766
f 318//767 516//767 319//767
f 319//422 516//422 510//422
f 319//768 510//768 320//768
f 320//768 510//768 321//768
f 321//768 510//768 322//768
f 322//768 510//768 323//768
f 323//422 510//422 511//422
f 323//1 511//1 324//1
f 324//1 511//1 325//1
f 325//1 511//1 326//1
f 326//1 511//1 327//1
f 327//1 511//1 328//1
f 328//1 511//1 512//1
f 328//1 512//1 329//1
f 329//1 512//1 330//1
f 330//1 512//1 331//1
f 331//1 512//1 332//1
f 332//418 512//418 515//418
f 332//418 515//418 333//418
f 333//418 515//418 334//418
f 334//418 515//418 335//418
f 335//769 515//769 131//769
f 131//770 515//770 513//770
f 131//771 513//771 336//771
f 336//771 513//771 337//771
f 337//772 513//772 338//772
f 338//419 513//419 339//419
f 339//772 513//772 340//772
f 340//773 513//773 341//773
f 341//774 513//774 342//774
f 342//775 513//775 514//775
f 342//419 514//419 343//419
f 343//422 514//422 344//422
f 344//422 514//422 345//422
f 345//422 514//422 346//422
f 346//422 514//422 347//422
f 347//768 514//768 348//768
f 348//422 514//422 519//422
f 348//1 519//1 349//1
f 349//1 519//1 350//1
f 350//1 519//1 351//1
f 351//1 519//1 352//1
f 352//1 519//1 353//1
f 353//1 519//1 354//1
f 354//1 519//1 355//1
f 355//1 519//1 521//1
f 355//1 521//1 356//1
f 356//1 521//1 357//1
f 357//1 521//1 303//1
f 303//1 521//1 304//1
f 304//1 521//1 305//1
f 305//1 521//1 306//1
f 306//1 521//1 307//1
f 307//1 521//1 523//1
f 307//1 523//1 308//1
f 308//1 523//1 309//1
f 309//1 523//1 310//1
f 310//1 523//1 311//1
f 311//1 523//1 312//1
f 312//1 523//1 313//1
f 313//764 523//764 516//764
f 388//776 509//776 389//776
f 389//777 509//777 390//777
f 390//778 509//778 522//778
f 390//287 522//287 391//287
f 391//287 522//287 135//287
f 135//287 522//287 392//287
f 392//287 522//287 393//287
f 393//287 522//287 394//287
f 394//287 522//287 395//287
f 395//287 522//287 396//287
f 396//287 522//287 397//287
f 397//287 522//287 520//287
f 397//287 520//287 398//287
f 398//287 520//287 399//287
f 399//287 520//287 400//287
f 400//287 520//287 401//287
f 401//287 520//287 402//287
f 402//287 520//287 403//287
f 403//287 520//287 404//287
f 404//434 520//434 518//434
f 404//433 518//433 405//433
f 405//433 518//433 406//433
f 370//432 517//432 371//432
f 371//432 517//432 372//432
f 372//432 517//432 373//432
f 373//432 517//432 374//432
f 374//432 517//432 375//432
f 375//779 517//779 376//779
f 376//433 517//433 508//433
f 376//287 508//287 377//287
f 377//287 508//287 378//287
f 378//287 508//287 379//287
f 379//287 508//287 380//287
f 380//287 508//287 381//287
f 381//780 508//780 509//780
f 381//781 509//781 382//781
f 382//782 509//782 383//782
f 383//780 509//780 384//780
f 384//780 509//780 385//780
f 385//780 509//780 386//780
f 386//780 509//780 387//780
f 387//783 509//783 388//783
f 406//433 518//433 407//433
f 407//433 518//433 408//433
f 408//433 518//433 409//433
f 409//433 518//433 410//433
f 410//433 518//433 411//433
f 411//784 518//784 358//784
f 358//785 518//785 359//785
f 359//433 518//433 506//433
f 359//287 506//287 360//287
f 360//287 506//287 361//287
f 361//287 506//287 362//287
f 362//287 506//287 363//287
f 363//287 506//287 364//287
f 364//287 506//287 365//287
f 365//287 506//287 366//287
f 366//287 506//287 507//287
f 366//287 507//287 367//287
f 367//287 507//287 368//287
f 368//287 507//287 369//287
f 369//287 507//287 370//287
f 370//432 507//432 517//432
f 479//786 493//786 496//786
f 479//787 484//787 493//787
f 494//788 496//788 493//788
f 496//789 494//789 495//789
f 480//790 484//790 479//790
f 483//791 457//791 472//791
f 481//792 457//792 483//792
f 466//793 471//793 457//793
f 457//794 471//794 472//794
f 471//795 466//795 470//795
f 470//796 466//796 446//796
f 470//797 446//797 469//797
f 469//798 446//798 456//798
f 476//799 468//799 456//799
f 476//800 452//800 467//800
f 476//801 467//801 468//801
f 452//802 447//802 467//802
f 467//803 447//803 449//803
