# Blender 5.0.1
# www.blender.org
mtllib collisionruim.mtl
o dronecollision
v 0.000000 0.047706 0.000000
v 0.000000 -0.059250 0.000000
v 0.000000 0.091069 0.000000
v 0.000000 -0.059250 -0.105014
v 0.000000 0.047706 -0.018398
v 0.000000 0.047706 -0.038135
v 0.000000 0.045069 -0.087691
v 0.000000 -0.059250 -0.079029
v 0.000000 -0.059250 -0.046107
v 0.000000 -0.042024 -0.105014
v 0.000000 -0.023500 -0.105014
v 0.000000 -0.017517 -0.105014
v 0.000000 -0.001936 -0.105014
v 0.000000 0.017796 -0.087691
v 0.000000 0.032751 -0.087691
v 0.000000 0.045069 -0.056821
v 0.000000 0.091069 -0.038135
v 0.000000 0.091069 -0.056825
v 0.000000 0.091069 -0.018398
v -0.053141 0.045069 -0.000000
v -0.035516 0.032751 -0.000000
v -0.035516 0.017796 -0.000000
v -0.035516 0.002841 -0.000000
v -0.036336 -0.015000 -0.000000
v -0.036336 -0.034547 -0.000000
v -0.053141 0.091069 -0.000000
v -0.036336 -0.059250 -0.105014
v -0.036336 -0.059250 -0.087691
v -0.036336 -0.059250 -0.070368
v -0.036336 -0.059250 -0.054079
v -0.036336 -0.059250 -0.038135
v -0.036336 -0.059250 -0.018398
v -0.036336 -0.059250 -0.000000
v -0.053141 0.045069 -0.018398
v -0.053141 0.045069 -0.056825
v -0.020434 0.045069 -0.056825
v -0.017946 0.045069 -0.087691
v -0.036336 -0.042024 -0.105014
v -0.036336 -0.027069 -0.105014
v -0.036336 -0.015000 -0.105014
v -0.017946 -0.001936 -0.105014
v -0.017946 0.017796 -0.087691
v -0.017946 0.032751 -0.087691
v -0.035516 0.032751 -0.018398
v -0.035516 0.017796 -0.018398
v -0.035516 0.002841 -0.018398
v -0.035516 0.025714 -0.038135
v -0.035516 0.017796 -0.038135
v -0.036229 0.002841 -0.037118
v -0.036779 -0.015000 -0.037503
v -0.020434 0.025714 -0.054079
v -0.020434 0.017796 -0.054079
v -0.036507 0.002841 -0.052665
v -0.036354 -0.015388 -0.053468
v -0.020434 0.032751 -0.070368
v -0.020434 0.017796 -0.070368
v -0.020434 0.002841 -0.070368
v -0.036336 -0.015000 -0.070368
v -0.036336 -0.034547 -0.079029
v -0.020434 0.002841 -0.087691
v -0.036336 -0.015000 -0.087691
v -0.099168 0.011240 -0.081536
v -0.099168 0.003030 -0.081536
v -0.099168 -0.012500 -0.081536
v -0.092188 0.011240 -0.091307
v -0.092188 0.003030 -0.091307
v -0.092188 -0.012500 -0.091307
v -0.043720 -0.012501 -0.042364
v -0.055153 -0.012501 -0.050613
v -0.073209 -0.012500 -0.063255
v -0.083653 -0.012500 -0.070607
v -0.043720 0.002860 -0.042364
v -0.055153 0.002898 -0.050613
v -0.073191 0.003657 -0.063281
v -0.083653 0.003691 -0.070607
v -0.053312 0.002898 -0.064431
v -0.066023 0.003645 -0.073332
v -0.076861 0.003684 -0.080328
v -0.053312 -0.012501 -0.064431
v -0.066023 -0.012501 -0.073332
v -0.076861 -0.011837 -0.080328
v -0.057444 -0.037810 -0.052217
v -0.070208 -0.082445 -0.061154
v -0.080205 -0.026872 -0.068192
v -0.050543 -0.037810 -0.061899
v -0.063514 -0.082446 -0.070981
v -0.073413 -0.026873 -0.077913
v -0.061351 -0.082446 -0.054952
v -0.054450 -0.082446 -0.064635
v -0.105797 0.011240 -0.081887
v -0.105797 0.003030 -0.081887
v -0.105797 -0.012500 -0.081887
v -0.094093 0.011240 -0.098270
v -0.094093 0.003030 -0.098270
v -0.094093 -0.012500 -0.098270
v -0.116605 0.011240 -0.081236
v -0.116605 0.003030 -0.081236
v -0.116605 -0.012500 -0.081236
v -0.097603 0.011240 -0.107804
v -0.097603 0.003030 -0.107804
v -0.097603 -0.012500 -0.107804
v -0.123986 0.011240 -0.086515
v -0.123986 0.003030 -0.086515
v -0.123986 -0.012500 -0.086515
v -0.104984 0.011240 -0.113083
v -0.104984 0.003030 -0.113083
v -0.104984 -0.012500 -0.113083
v -0.127402 0.011240 -0.095332
v -0.127402 0.003030 -0.095332
v -0.127402 -0.012500 -0.095332
v -0.114364 0.011240 -0.113418
v -0.114364 0.003030 -0.113418
v -0.114364 -0.012500 -0.113418
v -0.132636 0.011240 -0.104296
v -0.132636 0.003030 -0.104296
v -0.132636 -0.012500 -0.104296
v -0.124441 0.011240 -0.115493
v -0.124441 0.003030 -0.115493
v -0.124441 -0.012500 -0.115493
v -0.136036 0.011240 -0.112185
v -0.136036 0.003030 -0.112185
v -0.136036 -0.012500 -0.112185
v -0.132856 0.011240 -0.116250
v -0.132856 0.003030 -0.116250
v -0.132856 -0.012500 -0.116250
v -0.053141 0.045069 -0.038135
v -0.053141 0.091069 -0.018398
v -0.053141 0.091069 -0.038135
v -0.053141 0.091069 -0.056825
v -0.036336 -0.024773 -0.000000
v 0.053141 0.045069 0.000000
v 0.035516 0.032751 0.000000
v 0.035516 0.017796 0.000000
v 0.035516 0.002841 0.000000
v 0.036787 -0.015000 0.000000
v 0.036787 -0.034547 0.000000
v 0.053141 0.091069 0.000000
v 0.036787 -0.059250 -0.105014
v 0.036787 -0.059250 -0.087691
v 0.036787 -0.059250 -0.070368
v 0.036787 -0.059250 -0.054079
v 0.036787 -0.059250 -0.038135
v 0.036787 -0.059250 -0.018398
v 0.036787 -0.059250 0.000000
v 0.053141 0.045069 -0.018398
v 0.053141 0.045069 -0.056825
v 0.020434 0.045069 -0.056825
v 0.017946 0.045069 -0.087691
v 0.036787 -0.042024 -0.105014
v 0.036787 -0.027069 -0.105014
v 0.036787 -0.015000 -0.105014
v 0.017946 -0.001936 -0.105014
v 0.017946 0.017796 -0.087691
v 0.017946 0.032751 -0.087691
v 0.035516 0.032751 -0.018398
v 0.035516 0.017796 -0.018398
v 0.035516 0.002841 -0.018398
v 0.035516 0.025714 -0.038135
v 0.035516 0.017796 -0.038135
v 0.036229 0.002841 -0.037118
v 0.037229 -0.015000 -0.037503
v 0.020434 0.025714 -0.054079
v 0.020434 0.017796 -0.054079
v 0.036507 0.002841 -0.052664
v 0.037229 -0.015388 -0.053468
v 0.020434 0.032751 -0.070368
v 0.020434 0.017796 -0.070368
v 0.020434 0.002841 -0.070368
v 0.036787 -0.015000 -0.070368
v 0.036787 -0.034547 -0.079029
v 0.020434 0.002841 -0.087691
v 0.036787 -0.015000 -0.087691
v 0.099168 0.011240 -0.081535
v 0.099168 0.003030 -0.081535
v 0.099168 -0.012500 -0.081535
v 0.092188 0.011240 -0.091307
v 0.092188 0.003030 -0.091307
v 0.092188 -0.012500 -0.091307
v 0.043720 -0.012501 -0.042363
v 0.055153 -0.012501 -0.050613
v 0.073209 -0.012500 -0.063255
v 0.083653 -0.012500 -0.070607
v 0.043720 0.002860 -0.042363
v 0.055153 0.002898 -0.050613
v 0.073191 0.003657 -0.063281
v 0.083653 0.003691 -0.070607
v 0.053312 0.002898 -0.064431
v 0.066023 0.003645 -0.073332
v 0.076861 0.003684 -0.080328
v 0.053312 -0.012501 -0.064431
v 0.066023 -0.012501 -0.073332
v 0.076861 -0.011837 -0.080328
v 0.057444 -0.037810 -0.052217
v 0.070208 -0.082445 -0.061154
v 0.080205 -0.026872 -0.068192
v 0.050543 -0.037810 -0.061899
v 0.063514 -0.082446 -0.070981
v 0.073413 -0.026873 -0.077913
v 0.061351 -0.082446 -0.054952
v 0.054450 -0.082446 -0.064635
v 0.105797 0.011240 -0.081887
v 0.105797 0.003030 -0.081887
v 0.105797 -0.012500 -0.081887
v 0.094093 0.011240 -0.098270
v 0.094093 0.003030 -0.098270
v 0.094093 -0.012500 -0.098270
v 0.116605 0.011240 -0.081236
v 0.116605 0.003030 -0.081236
v 0.116605 -0.012500 -0.081236
v 0.097603 0.011240 -0.107804
v 0.097603 0.003030 -0.107804
v 0.097603 -0.012500 -0.107804
v 0.123986 0.011240 -0.086515
v 0.123986 0.003030 -0.086515
v 0.123986 -0.012500 -0.086515
v 0.104984 0.011240 -0.113083
v 0.104984 0.003030 -0.113083
v 0.104984 -0.012500 -0.113083
v 0.127402 0.011240 -0.095332
v 0.127402 0.003030 -0.095332
v 0.127402 -0.012500 -0.095332
v 0.114364 0.011240 -0.113418
v 0.114364 0.003030 -0.113418
v 0.114364 -0.012500 -0.113418
v 0.132636 0.011240 -0.104296
v 0.132636 0.003030 -0.104296
v 0.132636 -0.012500 -0.104296
v 0.124441 0.011240 -0.115493
v 0.124441 0.003030 -0.115493
v 0.124441 -0.012500 -0.115493
v 0.136036 0.011240 -0.112185
v 0.136036 0.003030 -0.112185
v 0.136036 -0.012500 -0.112185
v 0.132856 0.011240 -0.116250
v 0.132856 0.003030 -0.116250
v 0.132856 -0.012500 -0.116250
v 0.053141 0.045069 -0.038135
v 0.053141 0.091069 -0.018398
v 0.053141 0.091069 -0.038135
v 0.053141 0.091069 -0.056825
v 0.036787 -0.024773 0.000000
v -0.000000 -0.059250 0.105014
v -0.000000 0.047706 0.018398
v -0.000000 0.047706 0.038135
v -0.000000 0.045069 0.105014
v -0.000000 -0.059250 0.079029
v -0.000000 -0.059250 0.046107
v -0.000000 -0.042024 0.105014
v -0.000000 -0.027069 0.105014
v -0.000000 -0.015000 0.105014
v -0.000000 -0.001936 0.105014
v -0.000000 0.017796 0.105014
v -0.000000 0.032751 0.105014
v -0.000000 0.045069 0.070812
v -0.000000 0.091069 0.038135
v -0.000000 0.091069 0.070812
v -0.000000 0.091069 0.018398
v -0.036336 -0.059250 0.105014
v -0.036336 -0.059250 0.087691
v -0.036336 -0.059250 0.070368
v -0.036336 -0.059250 0.054079
v -0.036336 -0.059250 0.038135
v -0.036336 -0.059250 0.018398
v -0.053141 0.045069 0.018398
v -0.053141 0.045069 0.070812
v -0.020434 0.045069 0.070817
v -0.017946 0.045069 0.105014
v -0.036336 -0.042024 0.105014
v -0.036336 -0.027069 0.105014
v -0.036336 -0.015000 0.105014
v -0.017946 -0.001936 0.105014
v -0.017946 0.017796 0.105014
v -0.017946 0.032751 0.105014
v -0.035516 0.032751 0.018398
v -0.035516 0.017796 0.018398
v -0.035516 0.002841 0.018398
v -0.035516 0.025714 0.038135
v -0.035516 0.017796 0.038135
v -0.036229 0.002841 0.037118
v -0.036779 -0.015000 0.037503
v -0.020434 0.025714 0.054079
v -0.020434 0.017796 0.054079
v -0.036507 0.002841 0.052664
v -0.036354 -0.015388 0.053468
v -0.020434 0.032751 0.070368
v -0.020434 0.017796 0.070368
v -0.020434 0.002841 0.070368
v -0.036336 -0.015000 0.070368
v -0.036336 -0.034547 0.079029
v -0.020434 0.002841 0.087691
v -0.036336 -0.015000 0.087691
v -0.099168 0.011240 0.081535
v -0.099168 0.003030 0.081535
v -0.099168 -0.012500 0.081535
v -0.092188 0.011240 0.091307
v -0.092188 0.003030 0.091307
v -0.092188 -0.012500 0.091307
v -0.043720 -0.012501 0.042363
v -0.055153 -0.012501 0.050613
v -0.073209 -0.012500 0.063255
v -0.083653 -0.012500 0.070607
v -0.043720 0.002860 0.042363
v -0.055153 0.002898 0.050613
v -0.073191 0.003657 0.063281
v -0.083653 0.003691 0.070607
v -0.053312 0.002898 0.064431
v -0.066023 0.003645 0.073332
v -0.076861 0.003684 0.080328
v -0.053312 -0.012501 0.064431
v -0.066023 -0.012501 0.073332
v -0.076861 -0.011837 0.080328
v -0.057444 -0.037810 0.052217
v -0.070208 -0.082445 0.061154
v -0.080205 -0.026872 0.068192
v -0.050543 -0.037810 0.061899
v -0.063514 -0.082446 0.070981
v -0.073413 -0.026873 0.077913
v -0.061351 -0.082446 0.054952
v -0.054450 -0.082446 0.064635
v -0.105797 0.011240 0.081887
v -0.105797 0.003030 0.081887
v -0.105797 -0.012500 0.081887
v -0.094093 0.011240 0.098270
v -0.094093 0.003030 0.098270
v -0.094093 -0.012500 0.098270
v -0.116605 0.011240 0.081236
v -0.116605 0.003030 0.081236
v -0.116605 -0.012500 0.081236
v -0.097603 0.011240 0.107804
v -0.097603 0.003030 0.107804
v -0.097603 -0.012500 0.107804
v -0.123986 0.011240 0.086515
v -0.123986 0.003030 0.086515
v -0.123986 -0.012500 0.086515
v -0.104984 0.011240 0.113083
v -0.104984 0.003030 0.113083
v -0.104984 -0.012500 0.113083
v -0.127402 0.011240 0.095332
v -0.127402 0.003030 0.095332
v -0.127402 -0.012500 0.095332
v -0.114364 0.011240 0.113418
v -0.114364 0.003030 0.113418
v -0.114364 -0.012500 0.113418
v -0.132636 0.011240 0.104296
v -0.132636 0.003030 0.104296
v -0.132636 -0.012500 0.104296
v -0.124441 0.011240 0.115493
v -0.124441 0.003030 0.115493
v -0.124441 -0.012500 0.115493
v -0.136036 0.011240 0.112185
v -0.136036 0.003030 0.112185
v -0.136036 -0.012500 0.112185
v -0.132856 0.011240 0.116250
v -0.132856 0.003030 0.116250
v -0.132856 -0.012500 0.116250
v -0.053141 0.045069 0.038135
v -0.053141 0.091069 0.018398
v -0.053141 0.091069 0.038135
v -0.053141 0.091069 0.070812
v 0.036787 -0.059250 0.105014
v 0.036787 -0.059250 0.087691
v 0.036787 -0.059250 0.070368
v 0.036787 -0.059250 0.054079
v 0.036787 -0.059250 0.038135
v 0.036787 -0.059250 0.018398
v 0.053141 0.045069 0.018398
v 0.053141 0.045069 0.070812
v 0.020434 0.045069 0.070817
v 0.017946 0.045069 0.105014
v 0.036787 -0.042024 0.105014
v 0.036787 -0.027069 0.105014
v 0.036787 -0.015000 0.105014
v 0.017946 -0.001936 0.105014
v 0.017946 0.017796 0.105014
v 0.017946 0.032751 0.105014
v 0.035516 0.032751 0.018398
v 0.035516 0.017796 0.018398
v 0.035516 0.002841 0.018398
v 0.035516 0.025714 0.038135
v 0.035516 0.017796 0.038135
v 0.036229 0.002841 0.037118
v 0.037229 -0.015000 0.037503
v 0.020434 0.025714 0.054079
v 0.020434 0.017796 0.054079
v 0.036507 0.002841 0.052665
v 0.037229 -0.015388 0.053468
v 0.020434 0.032751 0.070368
v 0.020434 0.017796 0.070368
v 0.020434 0.002841 0.070368
v 0.036787 -0.015000 0.070368
v 0.036787 -0.034547 0.079029
v 0.020434 0.002841 0.087691
v 0.036787 -0.015000 0.087691
v 0.099168 0.011240 0.081536
v 0.099168 0.003030 0.081536
v 0.099168 -0.012500 0.081536
v 0.092188 0.011240 0.091307
v 0.092188 0.003030 0.091307
v 0.092188 -0.012500 0.091307
v 0.043720 -0.012501 0.042364
v 0.055153 -0.012501 0.050613
v 0.073209 -0.012500 0.063255
v 0.083653 -0.012500 0.070607
v 0.043720 0.002860 0.042364
v 0.055153 0.002898 0.050613
v 0.073191 0.003657 0.063281
v 0.083653 0.003691 0.070607
v 0.053312 0.002898 0.064431
v 0.066023 0.003645 0.073332
v 0.076861 0.003684 0.080328
v 0.053312 -0.012501 0.064431
v 0.066023 -0.012501 0.073332
v 0.076861 -0.011837 0.080328
v 0.057444 -0.037810 0.052217
v 0.070208 -0.082445 0.061154
v 0.080205 -0.026872 0.068192
v 0.050543 -0.037810 0.061899
v 0.063514 -0.082446 0.070981
v 0.073413 -0.026873 0.077913
v 0.061351 -0.082446 0.054952
v 0.054450 -0.082446 0.064635
v 0.105797 0.011240 0.081887
v 0.105797 0.003030 0.081887
v 0.105797 -0.012500 0.081887
v 0.094093 0.011240 0.098270
v 0.094093 0.003030 0.098270
v 0.094093 -0.012500 0.098270
v 0.116605 0.011240 0.081236
v 0.116605 0.003030 0.081236
v 0.116605 -0.012500 0.081236
v 0.097603 0.011240 0.107804
v 0.097603 0.003030 0.107804
v 0.097603 -0.012500 0.107804
v 0.123986 0.011240 0.086515
v 0.123986 0.003030 0.086515
v 0.123986 -0.012500 0.086515
v 0.104984 0.011240 0.113083
v 0.104984 0.003030 0.113083
v 0.104984 -0.012500 0.113083
v 0.127402 0.011240 0.095332
v 0.127402 0.003030 0.095332
v 0.127402 -0.012500 0.095332
v 0.114364 0.011240 0.113418
v 0.114364 0.003030 0.113418
v 0.114364 -0.012500 0.113418
v 0.132636 0.011240 0.104296
v 0.132636 0.003030 0.104296
v 0.132636 -0.012500 0.104296
v 0.124441 0.011240 0.115493
v 0.124441 0.003030 0.115493
v 0.124441 -0.012500 0.115493
v 0.136036 0.011240 0.112185
v 0.136036 0.003030 0.112185
v 0.136036 -0.012500 0.112185
v 0.132856 0.011240 0.116250
v 0.132856 0.003030 0.116250
v 0.132856 -0.012500 0.116250
v 0.053141 0.045069 0.038135
v 0.053141 0.091069 0.018398
v 0.053141 0.091069 0.038135
v 0.053141 0.091069 0.070812
v 0.018393 -0.059250 -0.083360
v 0.010217 0.017796 -0.087691
v 0.017964 -0.017517 -0.105014
v 0.018393 -0.059250 -0.105014
v 0.017964 -0.023500 -0.105014
v 0.018393 -0.042024 -0.105014
v 0.008973 -0.001936 -0.105014
v 0.010217 0.032751 -0.087691
v 0.010217 0.045069 -0.087691
v 0.010217 0.045069 -0.056823
v 0.026571 0.046388 -0.018398
v 0.026571 0.046388 0.000000
v 0.026571 0.046388 -0.047480
v 0.018393 -0.059250 0.083360
v 0.010217 0.017796 0.105014
v 0.018393 -0.015000 0.105014
v 0.018393 -0.059250 0.105014
v 0.018393 -0.027069 0.105014
v 0.018393 -0.042024 0.105014
v 0.008973 -0.001936 0.105014
v 0.010217 0.032751 0.105014
v 0.010217 0.045069 0.105014
v 0.010217 0.045069 0.070814
v 0.026571 0.046388 0.018398
v 0.026571 0.046388 0.054474
v -0.018168 -0.059250 -0.083360
v -0.010217 0.017796 -0.087691
v -0.018036 -0.017517 -0.105014
v -0.018168 -0.059250 -0.105014
v -0.018036 -0.023500 -0.105014
v -0.018168 -0.042024 -0.105014
v -0.008973 -0.001936 -0.105014
v -0.010217 0.032751 -0.087691
v -0.010217 0.045069 -0.087691
v -0.010217 0.045069 -0.056823
v -0.026571 0.046388 -0.018398
v -0.026571 0.046388 -0.000000
v -0.026571 0.046388 -0.047480
v -0.018168 -0.059250 0.083360
v -0.010217 0.017796 0.105014
v -0.018168 -0.015000 0.105014
v -0.018168 -0.059250 0.105014
v -0.018168 -0.027069 0.105014
v -0.018168 -0.042024 0.105014
v -0.008973 -0.001936 0.105014
v -0.010217 0.032751 0.105014
v -0.010217 0.045069 0.105014
v -0.010217 0.045069 0.070814
v -0.026571 0.046388 0.018398
v -0.026571 0.046388 0.054474
v 0.000000 -0.023500 -0.136068
v 0.000000 -0.017517 -0.136068
v 0.017964 -0.017517 -0.136068
v 0.017964 -0.023500 -0.136068
v -0.018036 -0.017517 -0.136068
v -0.018036 -0.023500 -0.136068
vn -0.0496 0.9988 -0.0000
vn -0.0000 0.9902 -0.1397
vn -0.0000 1.0000 -0.0000
vn -0.0000 -1.0000 -0.0000
vn -0.5729 -0.8196 -0.0000
vn -0.6909 -0.7177 0.0868
vn -1.0000 -0.0000 -0.0000
vn -0.9931 0.0564 -0.1025
vn -0.5759 -0.0000 0.8176
vn 0.0028 1.0000 0.0010
vn 0.3030 0.9287 0.2137
vn 0.5823 -0.0000 -0.8130
vn -0.0530 -0.0000 0.9986
vn 0.9646 -0.0000 -0.2639
vn -0.7465 0.6654 -0.0000
vn -0.9940 0.0827 -0.0714
vn -0.9898 -0.0000 -0.1422
vn -0.9972 -0.0702 -0.0248
vn -0.9988 0.0300 0.0380
vn -0.9995 0.0244 0.0185
vn -0.9999 -0.0000 0.0118
vn -0.9975 0.0706 -0.0000
vn -0.6620 0.7346 -0.1488
vn -0.9697 0.1613 -0.1837
vn -0.2630 -0.5563 -0.7883
vn -0.7264 -0.0000 -0.6872
vn 0.0304 -0.9995 -0.0125
vn -0.5736 -0.0000 0.8192
vn 0.5843 -0.0092 -0.8115
vn 0.5597 0.0223 -0.8284
vn 0.5736 -0.0000 -0.8192
vn 0.5424 -0.0000 -0.8401
vn 0.0026 1.0000 -0.0000
vn 0.0031 1.0000 0.0004
vn 0.0390 0.9991 0.0142
vn -0.5851 -0.0000 0.8110
vn -0.5741 0.0010 0.8188
vn -0.5746 0.0010 0.8184
vn -0.8041 -0.2137 -0.5547
vn 0.8097 -0.1062 0.5771
vn 0.5399 -0.0094 -0.8417
vn -0.7837 -0.2752 -0.5569
vn -0.5762 -0.0003 0.8173
vn -0.5851 0.0016 0.8110
vn 0.5397 -0.0251 -0.8415
vn 0.0601 -0.0000 0.9982
vn 0.9384 -0.0000 -0.3455
vn 0.5817 -0.0000 -0.8134
vn -0.9325 -0.0000 0.3613
vn 0.0357 -0.0000 -0.9994
vn -0.5817 -0.0000 0.8134
vn 0.2016 -0.0000 -0.9795
vn -0.8636 -0.0000 0.5042
vn -0.9183 -0.0000 0.3958
vn 0.0897 -0.0000 -0.9960
vn -0.7876 -0.0000 -0.6162
vn -0.0000 -0.0000 -1.0000
vn -0.0000 0.6598 -0.7515
vn -0.7402 0.0234 -0.6720
vn -0.7464 0.6653 0.0145
vn -0.8183 0.4234 -0.3887
vn -0.7264 -0.0121 -0.6872
vn -0.9989 0.0459 0.0118
vn -0.5752 -0.0066 0.8180
vn 0.7173 -0.6627 0.2149
vn -1.0000 -0.0042 -0.0012
vn 0.0496 0.9988 -0.0000
vn 0.5729 -0.8196 -0.0000
vn 0.6909 -0.7177 0.0868
vn 1.0000 -0.0000 -0.0000
vn 0.9931 0.0564 -0.1025
vn 0.5759 -0.0000 0.8176
vn -0.0028 1.0000 0.0010
vn -0.3030 0.9287 0.2137
vn -0.5823 -0.0000 -0.8130
vn 0.0530 -0.0000 0.9986
vn -0.9646 -0.0000 -0.2639
vn 0.7372 0.6757 -0.0000
vn 0.9940 0.0827 -0.0714
vn 0.9898 -0.0000 -0.1422
vn 0.9998 -0.0216 0.0005
vn 0.9978 0.0551 0.0380
vn 0.9995 0.0244 0.0185
vn 0.9999 -0.0000 0.0118
vn 0.9954 0.0956 -0.0000
vn 0.6524 0.7430 -0.1493
vn 0.9697 0.1613 -0.1837
vn 0.2630 -0.5563 -0.7883
vn 0.7264 -0.0000 -0.6872
vn -0.0304 -0.9995 -0.0125
vn 0.5736 -0.0000 0.8192
vn -0.5843 -0.0092 -0.8115
vn -0.5690 0.0074 -0.8223
vn -0.5736 -0.0000 -0.8192
vn -0.5424 -0.0000 -0.8401
vn -0.0026 1.0000 -0.0000
vn -0.0031 1.0000 0.0004
vn -0.0390 0.9991 0.0142
vn 0.5848 0.0082 0.8111
vn 0.5851 -0.0000 0.8110
vn 0.5741 0.0010 0.8188
vn 0.5746 0.0010 0.8184
vn 0.8041 -0.2137 -0.5547
vn -0.8097 -0.1062 0.5771
vn -0.5399 -0.0094 -0.8417
vn 0.7837 -0.2752 -0.5569
vn 0.5762 -0.0003 0.8173
vn 0.5851 0.0016 0.8110
vn -0.5605 -0.0215 -0.8279
vn -0.0601 -0.0000 0.9982
vn -0.9384 -0.0000 -0.3455
vn -0.5817 -0.0000 -0.8134
vn 0.9325 -0.0000 0.3613
vn -0.0357 -0.0000 -0.9994
vn 0.5817 -0.0000 0.8134
vn -0.2016 -0.0000 -0.9795
vn 0.8636 -0.0000 0.5042
vn 0.9183 -0.0000 0.3958
vn -0.0897 -0.0000 -0.9960
vn 0.7876 -0.0000 -0.6162
vn 0.7391 0.0589 -0.6710
vn 0.7372 0.6757 -0.0038
vn 0.8183 0.4234 -0.3887
vn 0.7264 -0.0121 -0.6872
vn 0.9974 0.0710 0.0118
vn 0.5966 0.0111 0.8025
vn -0.7324 -0.6487 0.2069
vn 0.9944 -0.1022 -0.0284
vn -0.0000 0.9968 0.0804
vn -0.7015 -0.7093 -0.0692
vn -0.9974 -0.0013 0.0721
vn -0.5759 -0.0000 -0.8176
vn 0.0028 1.0000 -0.0010
vn 0.3030 0.9287 -0.2137
vn 0.5823 -0.0000 0.8130
vn -0.0530 -0.0000 -0.9986
vn 0.9646 -0.0000 0.2639
vn -0.9973 0.0553 0.0477
vn -0.9974 -0.0000 0.0716
vn -0.9972 -0.0702 0.0248
vn -0.9988 0.0300 -0.0380
vn -0.9995 0.0244 -0.0185
vn -0.9999 -0.0000 -0.0118
vn -0.6620 0.7346 0.1488
vn -0.9898 -0.0000 0.1422
vn -0.1880 -0.8046 0.5633
vn -0.7264 -0.0000 0.6872
vn 0.0304 -0.9995 0.0125
vn 0.5843 -0.0092 0.8115
vn 0.5597 0.0223 0.8284
vn 0.5424 -0.0000 0.8401
vn 0.0031 1.0000 -0.0004
vn 0.0390 0.9991 -0.0142
vn -0.5851 -0.0000 -0.8110
vn -0.5741 0.0010 -0.8188
vn -0.5746 0.0010 -0.8184
vn -0.8041 -0.2137 0.5547
vn 0.8097 -0.1062 -0.5771
vn 0.5399 -0.0094 0.8417
vn -0.7837 -0.2752 0.5569
vn -0.5762 -0.0003 -0.8173
vn -0.5851 0.0016 -0.8110
vn 0.5397 -0.0251 0.8415
vn 0.0601 -0.0000 -0.9982
vn 0.9384 -0.0000 0.3455
vn -0.9325 -0.0000 -0.3613
vn 0.0357 -0.0000 0.9994
vn 0.2016 -0.0000 0.9795
vn -0.8636 -0.0000 -0.5042
vn -0.9183 -0.0000 -0.3958
vn 0.0897 -0.0000 0.9960
vn -0.7876 -0.0000 0.6162
vn 0.8455 -0.5340 -0.0000
vn -0.0000 -0.0000 1.0000
vn -0.7402 0.0234 0.6720
vn -0.7464 0.6653 -0.0145
vn -0.8183 0.4234 0.3887
vn -0.7264 -0.0121 0.6872
vn -0.9989 0.0459 -0.0118
vn -0.5752 -0.0066 -0.8180
vn 0.7173 -0.6627 -0.2149
vn -1.0000 -0.0042 0.0012
vn 0.7015 -0.7093 -0.0692
vn 0.9974 -0.0013 0.0721
vn 0.5759 -0.0000 -0.8176
vn -0.0028 1.0000 -0.0010
vn -0.3030 0.9287 -0.2137
vn -0.5823 -0.0000 0.8130
vn 0.0530 -0.0000 -0.9986
vn -0.9646 -0.0000 0.2639
vn 0.9973 0.0553 0.0477
vn 0.9974 -0.0000 0.0716
vn 0.9998 -0.0216 -0.0005
vn 0.9978 0.0551 -0.0380
vn 0.9995 0.0244 -0.0185
vn 0.9999 -0.0000 -0.0118
vn 0.6524 0.7430 0.1493
vn 0.9898 -0.0000 0.1422
vn 0.1880 -0.8046 0.5633
vn 0.7264 -0.0000 0.6872
vn -0.0304 -0.9995 0.0125
vn -0.5843 -0.0092 0.8115
vn -0.5690 0.0074 0.8223
vn -0.5424 -0.0000 0.8401
vn -0.0031 1.0000 -0.0004
vn -0.0390 0.9991 -0.0142
vn 0.5848 0.0082 -0.8111
vn 0.5851 -0.0000 -0.8110
vn 0.5741 0.0010 -0.8188
vn 0.5746 0.0010 -0.8184
vn 0.8041 -0.2137 0.5547
vn -0.8097 -0.1062 -0.5771
vn -0.5399 -0.0094 0.8417
vn 0.7837 -0.2752 0.5569
vn 0.5762 -0.0003 -0.8173
vn 0.5851 0.0016 -0.8110
vn -0.5605 -0.0215 0.8279
vn -0.0601 -0.0000 -0.9982
vn -0.9384 -0.0000 0.3455
vn 0.9325 -0.0000 -0.3613
vn -0.0357 -0.0000 0.9994
vn -0.2016 -0.0000 0.9795
vn 0.8636 -0.0000 -0.5042
vn 0.9183 -0.0000 -0.3958
vn -0.0897 -0.0000 0.9960
vn 0.7876 -0.0000 0.6162
vn -0.8455 0.5340 -0.0000
vn 0.7391 0.0589 0.6710
vn 0.7372 0.6757 0.0038
vn 0.8183 0.4234 0.3887
vn 0.7264 -0.0121 0.6872
vn 0.9974 0.0710 -0.0118
vn 0.5966 0.0111 -0.8025
vn -0.7324 -0.6487 -0.2069
vn 0.9944 -0.1022 0.0284
vt 0.750000 0.687500
vt 0.770833 0.687500
vt 0.770833 0.750000
vt 0.750000 0.750000
vt 0.791667 0.687500
vt 0.791667 0.750000
vt 0.813503 0.687500
vt 0.813837 0.750000
vt 0.831981 0.687500
vt 0.854167 0.687500
vt 0.854167 0.750000
vt 0.834433 0.750000
vt 0.125000 0.687500
vt 0.145833 0.687500
vt 0.145833 0.750000
vt 0.125000 0.750000
vt 0.166667 0.625000
vt 0.166667 0.750000
vt 0.156250 0.687500
vt 0.187500 0.625000
vt 0.187500 0.750000
vt 0.208333 0.625000
vt 0.208333 0.750000
vt 0.229167 0.625000
vt 0.229167 0.750000
vt 0.250000 0.625000
vt 0.250000 0.750000
vt 0.589286 0.875000
vt 0.625000 0.875000
vt 0.625000 0.895833
vt 0.589286 0.895833
vt 0.625000 0.916667
vt 0.589286 0.916667
vt 0.589286 0.937500
vt 0.625000 0.959433
vt 0.589286 0.958333
vt 0.625000 0.979167
vt 0.589286 0.979167
vt 0.482143 0.916667
vt 0.517857 0.916667
vt 0.482143 0.916667
vt 0.000000 0.000000
vt 0.517857 0.937500
vt 0.482143 0.937500
vt 0.482143 0.937500
vt 0.517857 0.937500
vt 0.553571 0.937500
vt 0.375000 0.958333
vt 0.410714 0.979167
vt 0.375000 0.979167
vt 0.446429 0.958333
vt 0.482143 0.958333
vt 0.482143 0.979167
vt 0.517857 0.958333
vt 0.517857 0.979167
vt 0.553571 0.958333
vt 0.553572 0.979167
vt 0.375000 0.937500
vt 0.410714 0.937500
vt 0.410714 0.958333
vt 0.553571 0.937500
vt 0.375000 0.895833
vt 0.410714 0.916667
vt 0.375000 0.916667
vt 0.482143 0.937500
vt 0.517857 0.895833
vt 0.553571 0.895833
vt 0.553571 0.916667
vt 0.375000 0.875000
vt 0.410714 0.895833
vt 0.517857 0.875000
vt 0.553571 0.875000
vt 0.410714 1.000000
vt 0.375000 1.000000
vt 0.446429 0.979167
vt 0.446429 1.000000
vt 0.482143 1.000000
vt 0.517857 1.000000
vt 0.553571 1.000000
vt 0.625000 0.938928
vt 0.482143 0.916667
vt 0.482143 0.916667
vt 0.482143 0.937500
vt 0.553571 0.062500
vt 0.589286 0.062500
vt 0.589286 0.125000
vt 0.553571 0.125000
vt 0.517857 0.062500
vt 0.517857 0.125000
vt 0.482143 0.062500
vt 0.482143 0.125000
vt 0.446429 0.125000
vt 0.446429 0.062500
vt 0.410714 0.062500
vt 0.410714 0.125000
vt 0.375000 0.062500
vt 0.375000 0.125000
vt 0.791667 0.750000
vt 0.589286 0.000000
vt 0.791667 0.687500
vt 0.854167 0.687500
vt 0.553571 0.062500
vt 0.589286 0.062500
vt 0.517857 0.062500
vt 0.482143 0.062500
vt 0.770833 0.687500
vt 0.791667 0.687500
vt 0.854167 0.687500
vt 0.589286 0.062500
vt 0.517857 0.062500
vt 0.482143 0.062500
vt 0.589286 0.062500
vt 0.854167 0.625000
vt 0.375000 0.000000
vt 0.410714 0.000000
vt 0.446429 0.000000
vt 0.482143 0.000000
vt 0.517857 0.000000
vt 0.553571 0.000000
vt 0.125000 0.625000
vt 0.145833 0.625000
vt 0.829529 0.625000
vt 0.791667 0.625000
vt 0.813169 0.625000
vt 0.770833 0.625000
vt 0.750000 0.625000
s 0
f 498/1/1 497/2/1 34/3/1 20/4/1
f 497/2/1 499/5/1 35/6/1 34/3/1
f 499/5/2 496/7/2 36/8/2 35/6/2
f 496/9/3 495/10/3 37/11/3 36/12/3
f 490/13/4 487/14/4 28/15/4 27/16/4
f 8/17/4 29/18/4 28/15/4 487/19/4
f 8/17/4 9/20/4 30/21/4 29/18/4
f 9/22/4 31/23/4 30/21/4
f 9/22/4 2/24/4 32/25/4 31/23/4
f 2/26/4 33/27/4 32/25/4
f 21/28/5 20/29/5 34/30/5 44/31/5
f 44/31/6 34/30/6 35/32/6 47/33/6
f 51/34/7 36/35/7 55/36/7
f 55/36/8 36/35/8 37/37/8 43/38/8
f 71/39/9 75/40/9 63/40/9 64/41/9
f 75/42/10 74/40/10 77/43/10 78/42/10
f 78/42/11 65/42/11 62/42/11 75/42/11
f 78/43/12 81/44/12 67/45/12 66/46/12
f 64/41/13 63/40/13 91/40/13 92/41/13
f 65/47/14 66/46/14 94/46/14 93/47/14
f 67/45/4 64/41/4 92/41/4 95/45/4
f 29/48/7 59/49/7 28/50/7
f 59/51/7 58/52/7 61/53/7
f 58/52/15 57/54/15 60/55/15 61/53/15
f 57/54/16 56/56/16 42/57/16 60/55/16
f 56/56/17 55/36/17 43/38/17 42/57/17
f 30/58/7 25/59/7 59/60/7 29/48/7
f 52/61/7 51/34/7 55/36/7 56/56/7
f 32/62/7 25/63/7 31/64/7
f 54/65/18 25/42/18 50/41/18
f 49/40/19 50/41/19 46/66/19
f 46/66/20 45/67/20 48/68/20 49/40/20
f 45/67/7 44/31/7 47/33/7 48/68/7
f 33/69/7 25/70/7 32/62/7
f 30/21/7 31/23/7 25/63/7
f 130/42/21 50/42/21 25/42/21
f 46/66/22 50/41/22 23/71/22
f 23/71/7 22/72/7 45/67/7 46/66/7
f 22/72/7 21/28/7 44/31/7 45/67/7
f 28/50/7 59/49/7 38/73/7 27/74/7
f 59/75/7 39/76/7 38/73/7
f 59/75/7 61/53/7 40/77/7 39/76/7
f 61/53/23 60/55/23 41/78/23 40/77/23
f 60/55/24 42/79/24 41/78/24
f 36/80/25 51/34/25 47/33/25 35/32/25
f 47/33/26 51/34/26 52/61/26 48/68/26
f 64/41/27 67/45/27 81/44/27 71/39/27
f 69/81/28 70/82/28 83/82/28 82/81/28
f 80/44/29 79/83/29 85/83/29 86/44/29
f 53/43/30 54/65/30 79/83/30 76/46/30
f 76/46/31 79/83/31 80/44/31 77/43/31
f 77/43/32 80/44/32 81/44/32 78/43/32
f 65/47/3 93/47/3 99/47/3 105/47/3 111/47/3 117/47/3 123/47/3 120/68/3 114/68/3 108/68/3 102/68/3 96/68/3 90/68/3 62/68/3
f 62/42/9 63/40/9 75/42/9
f 66/46/12 65/42/12 78/43/12
f 72/40/33 49/40/33 53/43/33
f 73/40/34 72/40/34 53/43/34 76/46/34
f 74/40/35 73/40/35 76/46/35 77/43/35
f 50/41/28 49/40/28 72/40/28 68/41/28
f 68/41/36 72/40/36 73/40/36 69/81/36
f 69/81/37 73/40/37 74/40/37 70/82/37
f 70/82/38 74/40/38 75/40/38 71/39/38
f 84/39/39 87/44/39 86/44/39 83/82/39
f 85/83/40 82/81/40 88/81/40 89/83/40
f 81/44/41 80/44/41 86/44/41 87/44/41
f 71/39/42 81/44/42 87/44/42 84/39/42
f 70/82/43 71/39/43 84/39/43 83/82/43
f 83/82/4 86/44/4 89/83/4 88/81/4
f 86/44/31 85/83/31 89/83/31
f 82/81/28 83/82/28 88/81/28
f 69/81/44 82/81/44 68/41/44
f 79/83/45 54/65/45 85/83/45
f 92/41/46 91/40/46 97/40/46 98/41/46
f 93/47/47 94/46/47 100/46/47 99/47/47
f 95/45/4 92/41/4 98/41/4 101/45/4
f 66/46/14 67/45/14 95/45/14 94/46/14
f 63/40/13 62/68/13 90/68/13 91/40/13
f 100/46/48 101/45/48 107/45/48 106/46/48
f 94/46/47 95/45/47 101/45/47 100/46/47
f 91/40/46 90/68/46 96/68/46 97/40/46
f 104/41/49 103/40/49 109/40/49 110/41/49
f 105/47/50 106/46/50 112/46/50 111/47/50
f 107/45/4 104/41/4 110/41/4 113/45/4
f 97/40/51 96/68/51 102/68/51 103/40/51
f 101/45/4 98/41/4 104/41/4 107/45/4
f 99/47/48 100/46/48 106/46/48 105/47/48
f 98/41/51 97/40/51 103/40/51 104/41/51
f 111/47/52 112/46/52 118/46/52 117/47/52
f 113/45/4 110/41/4 116/41/4 119/45/4
f 109/40/53 108/68/53 114/68/53 115/40/53
f 106/46/50 107/45/50 113/45/50 112/46/50
f 103/40/49 102/68/49 108/68/49 109/40/49
f 115/40/54 114/68/54 120/68/54 121/40/54
f 118/46/55 119/45/55 125/45/55 124/46/55
f 110/41/53 109/40/53 115/40/53 116/41/53
f 112/46/52 113/45/52 119/45/52 118/46/52
f 122/41/56 121/40/56 124/46/56 125/45/56
f 121/40/56 120/68/56 123/47/56 124/46/56
f 119/45/4 116/41/4 122/41/4 125/45/4
f 117/47/55 118/46/55 124/46/55 123/47/55
f 116/41/54 115/40/54 121/40/54 122/41/54
f 35/6/3 34/3/3 126/6/3
f 35/8/7 126/6/7 128/6/7 129/8/7
f 34/3/7 20/4/7 26/4/7 127/3/7
f 126/6/7 34/3/7 127/3/7 128/6/7
f 129/8/57 18/8/57 16/42/57 35/8/57
f 488/84/57 494/85/57 15/86/57 14/87/57
f 493/88/58 488/84/58 14/87/58 13/89/58
f 489/90/57 493/88/57 13/89/57 12/91/57
f 11/92/4 491/93/4 517/93/4 512/92/4
f 492/94/57 491/93/57 11/92/57 10/95/57
f 490/96/57 492/94/57 10/95/57 4/97/57
f 128/6/3 127/3/3 19/3/3 17/98/3
f 127/3/3 26/4/3 3/4/3 19/3/3
f 129/8/3 128/6/3 17/98/3 18/8/3
f 495/10/57 494/85/57 43/99/57 37/11/57
f 53/43/59 57/42/59 54/65/59
f 58/52/60 54/65/60 57/42/60
f 53/43/3 49/40/3 57/42/3
f 56/56/7 57/54/7 52/61/7
f 57/54/61 49/40/61 52/61/61
f 49/40/62 48/68/62 52/61/62
f 24/42/63 23/71/63 50/41/63
f 68/41/64 82/81/64 50/41/64
f 50/41/65 82/81/65 85/83/65 54/65/65
f 59/51/7 25/59/7 58/52/7
f 25/59/66 54/65/66 58/52/66
f 130/42/21 24/42/21 50/42/21
f 473/1/67 131/4/67 145/3/67 472/2/67
f 472/2/67 145/3/67 146/6/67 474/100/67
f 474/100/2 146/6/2 147/8/2 471/7/2
f 471/9/3 147/12/3 148/11/3 470/101/3
f 465/13/4 138/16/4 139/15/4 462/14/4
f 8/17/4 462/19/4 139/15/4 140/18/4
f 8/17/4 140/18/4 141/21/4 9/20/4
f 9/22/4 141/21/4 142/23/4
f 9/22/4 142/23/4 143/25/4 2/24/4
f 2/26/4 143/25/4 144/27/4
f 132/28/68 155/31/68 145/30/68 131/29/68
f 155/31/69 158/33/69 146/32/69 145/30/69
f 162/34/70 166/36/70 147/35/70
f 166/36/71 154/38/71 148/37/71 147/35/71
f 182/39/72 175/41/72 174/40/72 186/40/72
f 186/42/73 189/42/73 188/43/73 185/40/73
f 189/42/74 186/42/74 173/42/74 176/42/74
f 189/43/75 177/46/75 178/45/75 192/44/75
f 175/41/76 203/41/76 202/40/76 174/40/76
f 176/47/77 204/47/77 205/46/77 177/46/77
f 178/45/4 206/45/4 203/41/4 175/41/4
f 140/48/70 139/50/70 170/49/70
f 170/51/70 172/53/70 169/52/70
f 169/52/78 172/53/78 171/55/78 168/54/78
f 168/54/79 171/55/79 153/57/79 167/56/79
f 167/56/80 153/57/80 154/38/80 166/36/80
f 141/58/70 140/48/70 170/60/70 136/59/70
f 163/61/70 167/56/70 166/36/70 162/34/70
f 143/62/70 142/64/70 136/63/70
f 165/65/81 161/41/81 136/42/81
f 160/40/82 157/66/82 161/41/82
f 157/66/83 160/40/83 159/68/83 156/67/83
f 156/67/70 159/68/70 158/33/70 155/31/70
f 144/69/70 143/62/70 136/70/70
f 141/21/70 136/63/70 142/23/70
f 241/42/84 136/42/84 161/42/84
f 157/66/85 134/71/85 161/41/85
f 134/71/70 157/66/70 156/67/70 133/72/70
f 133/72/70 156/67/70 155/31/70 132/28/70
f 139/50/70 138/74/70 149/73/70 170/49/70
f 170/75/70 149/73/70 150/76/70
f 170/75/70 150/76/70 151/77/70 172/53/70
f 172/53/86 151/77/86 152/78/86 171/55/86
f 171/55/87 152/78/87 153/79/87
f 147/80/88 146/32/88 158/33/88 162/34/88
f 158/33/89 159/68/89 163/61/89 162/34/89
f 175/41/90 182/39/90 192/44/90 178/45/90
f 180/81/91 193/81/91 194/82/91 181/82/91
f 191/44/92 197/44/92 196/83/92 190/83/92
f 164/43/93 187/46/93 190/83/93 165/65/93
f 187/46/94 188/43/94 191/44/94 190/83/94
f 188/43/95 189/43/95 192/44/95 191/44/95
f 176/47/3 173/68/3 201/68/3 207/68/3 213/68/3 219/68/3 225/68/3 231/68/3 234/47/3 228/47/3 222/47/3 216/47/3 210/47/3 204/47/3
f 173/42/72 186/42/72 174/40/72
f 177/46/75 189/43/75 176/42/75
f 183/40/96 164/43/96 160/40/96
f 184/40/97 187/46/97 164/43/97 183/40/97
f 185/40/98 188/43/98 187/46/98 184/40/98
f 161/41/99 179/41/99 183/40/99 160/40/99
f 179/41/100 180/81/100 184/40/100 183/40/100
f 180/81/101 181/82/101 185/40/101 184/40/101
f 181/82/102 182/39/102 186/40/102 185/40/102
f 195/39/103 194/82/103 197/44/103 198/44/103
f 196/83/104 200/83/104 199/81/104 193/81/104
f 192/44/105 198/44/105 197/44/105 191/44/105
f 182/39/106 195/39/106 198/44/106 192/44/106
f 181/82/107 194/82/107 195/39/107 182/39/107
f 194/82/4 199/81/4 200/83/4 197/44/4
f 197/44/94 200/83/94 196/83/94
f 193/81/91 199/81/91 194/82/91
f 180/81/108 179/41/108 193/81/108
f 190/83/109 196/83/109 165/65/109
f 203/41/110 209/41/110 208/40/110 202/40/110
f 204/47/111 210/47/111 211/46/111 205/46/111
f 206/45/4 212/45/4 209/41/4 203/41/4
f 177/46/77 205/46/77 206/45/77 178/45/77
f 174/40/76 202/40/76 201/68/76 173/68/76
f 211/46/112 217/46/112 218/45/112 212/45/112
f 205/46/111 211/46/111 212/45/111 206/45/111
f 202/40/110 208/40/110 207/68/110 201/68/110
f 215/41/113 221/41/113 220/40/113 214/40/113
f 216/47/114 222/47/114 223/46/114 217/46/114
f 218/45/4 224/45/4 221/41/4 215/41/4
f 208/40/115 214/40/115 213/68/115 207/68/115
f 212/45/4 218/45/4 215/41/4 209/41/4
f 210/47/112 216/47/112 217/46/112 211/46/112
f 209/41/115 215/41/115 214/40/115 208/40/115
f 222/47/116 228/47/116 229/46/116 223/46/116
f 224/45/4 230/45/4 227/41/4 221/41/4
f 220/40/117 226/40/117 225/68/117 219/68/117
f 217/46/114 223/46/114 224/45/114 218/45/114
f 214/40/113 220/40/113 219/68/113 213/68/113
f 226/40/118 232/40/118 231/68/118 225/68/118
f 229/46/119 235/46/119 236/45/119 230/45/119
f 221/41/117 227/41/117 226/40/117 220/40/117
f 223/46/116 229/46/116 230/45/116 224/45/116
f 233/41/120 236/45/120 235/46/120 232/40/120
f 232/40/120 235/46/120 234/47/120 231/68/120
f 230/45/4 236/45/4 233/41/4 227/41/4
f 228/47/119 234/47/119 235/46/119 229/46/119
f 227/41/118 233/41/118 232/40/118 226/40/118
f 146/6/3 237/6/3 145/3/3
f 146/8/70 240/8/70 239/6/70 237/6/70
f 145/3/70 238/3/70 137/4/70 131/4/70
f 237/6/70 239/6/70 238/3/70 145/3/70
f 240/8/57 146/8/57 16/42/57 18/8/57
f 463/102/57 14/87/57 15/86/57 469/103/57
f 468/104/58 13/89/58 14/87/58 463/102/58
f 464/105/57 12/91/57 13/89/57 468/104/57
f 464/105/70 466/93/70 515/93/70 514/105/70
f 467/94/57 10/95/57 11/92/57 466/93/57
f 465/96/57 4/97/57 10/95/57 467/94/57
f 239/6/3 17/98/3 19/3/3 238/3/3
f 238/3/3 19/3/3 3/4/3 137/4/3
f 240/8/3 18/8/3 17/98/3 239/6/3
f 470/101/57 148/11/57 154/99/57 469/103/57
f 164/43/121 165/65/121 168/42/121
f 169/52/122 168/42/122 165/65/122
f 164/43/3 168/42/3 160/40/3
f 167/56/70 163/61/70 168/54/70
f 168/54/123 163/61/123 160/40/123
f 160/40/124 163/61/124 159/68/124
f 135/42/125 161/41/125 134/71/125
f 179/41/126 161/41/126 193/81/126
f 161/41/127 165/65/127 196/83/127 193/81/127
f 170/51/70 169/52/70 136/59/70
f 136/59/128 169/52/128 165/65/128
f 241/42/84 161/42/84 135/42/84
f 498/1/1 20/4/1 264/3/1 510/106/1
f 510/106/1 264/3/1 265/6/1 511/107/1
f 511/107/129 265/6/129 266/8/129 509/7/129
f 509/9/3 266/12/3 267/11/3 508/108/3
f 503/13/4 258/16/4 259/15/4 500/14/4
f 246/17/4 500/19/4 259/15/4 260/18/4
f 246/17/4 260/18/4 261/21/4 247/20/4
f 247/22/4 261/21/4 262/23/4
f 247/22/4 262/23/4 263/25/4 2/24/4
f 2/26/4 263/25/4 33/27/4
f 21/28/5 274/31/5 264/30/5 20/29/5
f 274/31/130 277/33/130 265/32/130 264/30/130
f 281/34/7 285/36/7 266/35/7
f 285/36/131 273/38/131 267/37/131 266/35/131
f 301/39/132 294/41/132 293/40/132 305/40/132
f 305/42/133 308/42/133 307/43/133 304/40/133
f 308/42/134 305/42/134 292/42/134 295/42/134
f 308/43/135 296/46/135 297/45/135 311/44/135
f 294/41/136 322/41/136 321/40/136 293/40/136
f 295/47/137 323/47/137 324/46/137 296/46/137
f 297/45/4 325/45/4 322/41/4 294/41/4
f 260/48/7 259/50/7 289/49/7
f 289/51/7 291/53/7 288/52/7
f 288/52/15 291/53/15 290/55/15 287/54/15
f 287/54/138 290/55/138 272/57/138 286/56/138
f 286/56/139 272/57/139 273/38/139 285/36/139
f 261/58/7 260/48/7 289/60/7 25/59/7
f 282/61/7 286/56/7 285/36/7 281/34/7
f 263/62/7 262/64/7 25/63/7
f 284/65/140 280/41/140 25/42/140
f 279/40/141 276/66/141 280/41/141
f 276/66/142 279/40/142 278/68/142 275/67/142
f 275/67/7 278/68/7 277/33/7 274/31/7
f 33/69/7 263/62/7 25/70/7
f 261/21/7 25/63/7 262/23/7
f 130/42/143 25/42/143 280/42/143
f 276/66/22 23/71/22 280/41/22
f 23/71/7 276/66/7 275/67/7 22/72/7
f 22/72/7 275/67/7 274/31/7 21/28/7
f 259/50/7 258/74/7 268/73/7 289/49/7
f 289/75/7 268/73/7 269/76/7
f 289/75/7 269/76/7 270/77/7 291/53/7
f 291/53/144 270/77/144 271/78/144 290/55/144
f 290/55/145 271/78/145 272/79/145
f 266/80/146 265/32/146 277/33/146 281/34/146
f 277/33/147 278/68/147 282/61/147 281/34/147
f 294/41/148 301/39/148 311/44/148 297/45/148
f 299/81/94 312/81/94 313/82/94 300/82/94
f 310/44/149 316/44/149 315/83/149 309/83/149
f 283/43/150 306/46/150 309/83/150 284/65/150
f 306/46/91 307/43/91 310/44/91 309/83/91
f 307/43/151 308/43/151 311/44/151 310/44/151
f 295/47/3 292/68/3 320/68/3 326/68/3 332/68/3 338/68/3 344/68/3 350/68/3 353/47/3 347/47/3 341/47/3 335/47/3 329/47/3 323/47/3
f 292/42/132 305/42/132 293/40/132
f 296/46/135 308/43/135 295/42/135
f 302/40/33 283/43/33 279/40/33
f 303/40/152 306/46/152 283/43/152 302/40/152
f 304/40/153 307/43/153 306/46/153 303/40/153
f 280/41/94 298/41/94 302/40/94 279/40/94
f 298/41/154 299/81/154 303/40/154 302/40/154
f 299/81/155 300/82/155 304/40/155 303/40/155
f 300/82/156 301/39/156 305/40/156 304/40/156
f 314/39/157 313/82/157 316/44/157 317/44/157
f 315/83/158 319/83/158 318/81/158 312/81/158
f 311/44/159 317/44/159 316/44/159 310/44/159
f 301/39/160 314/39/160 317/44/160 311/44/160
f 300/82/161 313/82/161 314/39/161 301/39/161
f 313/82/4 318/81/4 319/83/4 316/44/4
f 316/44/91 319/83/91 315/83/91
f 312/81/94 318/81/94 313/82/94
f 299/81/162 298/41/162 312/81/162
f 309/83/163 315/83/163 284/65/163
f 322/41/164 328/41/164 327/40/164 321/40/164
f 323/47/165 329/47/165 330/46/165 324/46/165
f 325/45/4 331/45/4 328/41/4 322/41/4
f 296/46/137 324/46/137 325/45/137 297/45/137
f 293/40/136 321/40/136 320/68/136 292/68/136
f 330/46/115 336/46/115 337/45/115 331/45/115
f 324/46/165 330/46/165 331/45/165 325/45/165
f 321/40/164 327/40/164 326/68/164 320/68/164
f 334/41/166 340/41/166 339/40/166 333/40/166
f 335/47/167 341/47/167 342/46/167 336/46/167
f 337/45/4 343/45/4 340/41/4 334/41/4
f 327/40/112 333/40/112 332/68/112 326/68/112
f 331/45/4 337/45/4 334/41/4 328/41/4
f 329/47/115 335/47/115 336/46/115 330/46/115
f 328/41/112 334/41/112 333/40/112 327/40/112
f 341/47/168 347/47/168 348/46/168 342/46/168
f 343/45/4 349/45/4 346/41/4 340/41/4
f 339/40/169 345/40/169 344/68/169 338/68/169
f 336/46/167 342/46/167 343/45/167 337/45/167
f 333/40/166 339/40/166 338/68/166 332/68/166
f 345/40/170 351/40/170 350/68/170 344/68/170
f 348/46/171 354/46/171 355/45/171 349/45/171
f 340/41/169 346/41/169 345/40/169 339/40/169
f 342/46/168 348/46/168 349/45/168 343/45/168
f 352/41/172 355/45/172 354/46/172 351/40/172
f 351/40/172 354/46/172 353/47/172 350/68/172
f 349/45/4 355/45/4 352/41/4 346/41/4
f 347/47/171 353/47/171 354/46/171 348/46/171
f 346/41/170 352/41/170 351/40/170 345/40/170
f 265/6/173 356/6/173 264/3/173
f 265/8/7 359/8/7 358/6/7 356/6/7
f 264/3/7 357/3/7 26/4/7 20/4/7
f 356/6/7 358/6/7 357/3/7 264/3/7
f 359/8/174 265/8/174 254/42/174 256/8/174
f 501/102/174 252/87/174 253/86/174 507/109/174
f 506/110/174 251/89/174 252/87/174 501/102/174
f 502/111/174 250/91/174 251/89/174 506/110/174
f 504/93/174 249/92/174 250/91/174 502/111/174
f 505/94/174 248/95/174 249/92/174 504/93/174
f 503/96/174 242/97/174 248/95/174 505/94/174
f 358/6/3 255/98/3 257/3/3 357/3/3
f 357/3/3 257/3/3 3/4/3 26/4/3
f 359/8/3 256/8/3 255/98/3 358/6/3
f 508/108/174 267/11/174 273/99/174 507/109/174
f 283/43/175 284/65/175 287/42/175
f 288/52/176 287/42/176 284/65/176
f 283/43/3 287/42/3 279/40/3
f 286/56/7 282/61/7 287/54/7
f 287/54/177 282/61/177 279/40/177
f 279/40/178 282/61/178 278/68/178
f 24/42/179 280/41/179 23/71/179
f 298/41/180 280/41/180 312/81/180
f 280/41/181 284/65/181 315/83/181 312/81/181
f 289/51/7 288/52/7 25/59/7
f 25/59/182 288/52/182 284/65/182
f 130/42/143 280/42/143 24/42/143
f 473/1/67 485/2/67 366/3/67 131/4/67
f 485/2/67 486/5/67 367/6/67 366/3/67
f 486/5/129 484/7/129 368/8/129 367/6/129
f 484/9/3 483/101/3 369/11/3 368/12/3
f 478/13/4 475/14/4 361/15/4 360/16/4
f 246/17/4 362/18/4 361/15/4 475/19/4
f 246/17/4 247/20/4 363/21/4 362/18/4
f 247/22/4 364/23/4 363/21/4
f 247/22/4 2/24/4 365/25/4 364/23/4
f 2/26/4 144/27/4 365/25/4
f 132/28/68 131/29/68 366/30/68 376/31/68
f 376/31/183 366/30/183 367/32/183 379/33/183
f 383/34/70 368/35/70 387/36/70
f 387/36/184 368/35/184 369/37/184 375/38/184
f 403/39/185 407/40/185 395/40/185 396/41/185
f 407/42/186 406/40/186 409/43/186 410/42/186
f 410/42/187 397/42/187 394/42/187 407/42/187
f 410/43/188 413/44/188 399/45/188 398/46/188
f 396/41/189 395/40/189 423/40/189 424/41/189
f 397/47/190 398/46/190 426/46/190 425/47/190
f 399/45/4 396/41/4 424/41/4 427/45/4
f 362/48/70 391/49/70 361/50/70
f 391/51/70 390/52/70 393/53/70
f 390/52/78 389/54/78 392/55/78 393/53/78
f 389/54/191 388/56/191 374/57/191 392/55/191
f 388/56/192 387/36/192 375/38/192 374/57/192
f 363/58/70 136/59/70 391/60/70 362/48/70
f 384/61/70 383/34/70 387/36/70 388/56/70
f 365/62/70 136/63/70 364/64/70
f 386/65/193 136/42/193 382/41/193
f 381/40/194 382/41/194 378/66/194
f 378/66/195 377/67/195 380/68/195 381/40/195
f 377/67/70 376/31/70 379/33/70 380/68/70
f 144/69/70 136/70/70 365/62/70
f 363/21/70 364/23/70 136/63/70
f 241/42/196 382/42/196 136/42/196
f 378/66/85 382/41/85 134/71/85
f 134/71/70 133/72/70 377/67/70 378/66/70
f 133/72/70 132/28/70 376/31/70 377/67/70
f 361/50/70 391/49/70 370/73/70 360/74/70
f 391/75/70 371/76/70 370/73/70
f 391/75/70 393/53/70 372/77/70 371/76/70
f 393/53/197 392/55/197 373/78/197 372/77/197
f 392/55/198 374/79/198 373/78/198
f 368/80/199 383/34/199 379/33/199 367/32/199
f 379/33/200 383/34/200 384/61/200 380/68/200
f 396/41/201 399/45/201 413/44/201 403/39/201
f 401/81/31 402/82/31 415/82/31 414/81/31
f 412/44/202 411/83/202 417/83/202 418/44/202
f 385/43/203 386/65/203 411/83/203 408/46/203
f 408/46/28 411/83/28 412/44/28 409/43/28
f 409/43/204 412/44/204 413/44/204 410/43/204
f 397/47/3 425/47/3 431/47/3 437/47/3 443/47/3 449/47/3 455/47/3 452/68/3 446/68/3 440/68/3 434/68/3 428/68/3 422/68/3 394/68/3
f 394/42/185 395/40/185 407/42/185
f 398/46/188 397/42/188 410/43/188
f 404/40/96 381/40/96 385/43/96
f 405/40/205 404/40/205 385/43/205 408/46/205
f 406/40/206 405/40/206 408/46/206 409/43/206
f 382/41/207 381/40/207 404/40/207 400/41/207
f 400/41/208 404/40/208 405/40/208 401/81/208
f 401/81/209 405/40/209 406/40/209 402/82/209
f 402/82/210 406/40/210 407/40/210 403/39/210
f 416/39/211 419/44/211 418/44/211 415/82/211
f 417/83/212 414/81/212 420/81/212 421/83/212
f 413/44/213 412/44/213 418/44/213 419/44/213
f 403/39/214 413/44/214 419/44/214 416/39/214
f 402/82/215 403/39/215 416/39/215 415/82/215
f 415/82/4 418/44/4 421/83/4 420/81/4
f 418/44/28 417/83/28 421/83/28
f 414/81/31 415/82/31 420/81/31
f 401/81/216 414/81/216 400/41/216
f 411/83/217 386/65/217 417/83/217
f 424/41/218 423/40/218 429/40/218 430/41/218
f 425/47/219 426/46/219 432/46/219 431/47/219
f 427/45/4 424/41/4 430/41/4 433/45/4
f 398/46/190 399/45/190 427/45/190 426/46/190
f 395/40/189 394/68/189 422/68/189 423/40/189
f 432/46/51 433/45/51 439/45/51 438/46/51
f 426/46/219 427/45/219 433/45/219 432/46/219
f 423/40/218 422/68/218 428/68/218 429/40/218
f 436/41/220 435/40/220 441/40/220 442/41/220
f 437/47/221 438/46/221 444/46/221 443/47/221
f 439/45/4 436/41/4 442/41/4 445/45/4
f 429/40/48 428/68/48 434/68/48 435/40/48
f 433/45/4 430/41/4 436/41/4 439/45/4
f 431/47/51 432/46/51 438/46/51 437/47/51
f 430/41/48 429/40/48 435/40/48 436/41/48
f 443/47/222 444/46/222 450/46/222 449/47/222
f 445/45/4 442/41/4 448/41/4 451/45/4
f 441/40/223 440/68/223 446/68/223 447/40/223
f 438/46/221 439/45/221 445/45/221 444/46/221
f 435/40/220 434/68/220 440/68/220 441/40/220
f 447/40/224 446/68/224 452/68/224 453/40/224
f 450/46/225 451/45/225 457/45/225 456/46/225
f 442/41/223 441/40/223 447/40/223 448/41/223
f 444/46/222 445/45/222 451/45/222 450/46/222
f 454/41/226 453/40/226 456/46/226 457/45/226
f 453/40/226 452/68/226 455/47/226 456/46/226
f 451/45/4 448/41/4 454/41/4 457/45/4
f 449/47/225 450/46/225 456/46/225 455/47/225
f 448/41/224 447/40/224 453/40/224 454/41/224
f 367/6/227 366/3/227 458/6/227
f 367/8/70 458/6/70 460/6/70 461/8/70
f 366/3/70 131/4/70 137/4/70 459/3/70
f 458/6/70 366/3/70 459/3/70 460/6/70
f 461/8/174 256/8/174 254/42/174 367/8/174
f 476/102/174 482/112/174 253/86/174 252/87/174
f 481/110/174 476/102/174 252/87/174 251/89/174
f 477/90/174 481/110/174 251/89/174 250/91/174
f 479/93/174 477/90/174 250/91/174 249/92/174
f 480/94/174 479/93/174 249/92/174 248/95/174
f 478/96/174 480/94/174 248/95/174 242/97/174
f 460/6/3 459/3/3 257/3/3 255/98/3
f 459/3/3 137/4/3 3/4/3 257/3/3
f 461/8/3 460/6/3 255/98/3 256/8/3
f 483/101/174 482/112/174 375/99/174 369/11/174
f 385/43/228 389/42/228 386/65/228
f 390/52/229 386/65/229 389/42/229
f 385/43/3 381/40/3 389/42/3
f 388/56/70 389/54/70 384/61/70
f 389/54/230 381/40/230 384/61/230
f 381/40/231 380/68/231 384/61/231
f 135/42/232 134/71/232 382/41/232
f 400/41/233 414/81/233 382/41/233
f 382/41/234 414/81/234 417/83/234 386/65/234
f 391/51/70 136/59/70 390/52/70
f 136/59/235 386/65/235 390/52/235
f 241/42/196 135/42/196 382/42/196
f 245/113/174 253/86/174 482/112/174 483/101/174
f 360/114/174 370/115/174 480/94/174 478/96/174
f 370/115/174 371/116/174 479/93/174 480/94/174
f 371/116/174 372/117/174 477/90/174 479/93/174
f 372/117/174 373/118/174 481/110/174 477/90/174
f 373/118/174 374/119/174 476/102/174 481/110/174
f 374/119/174 375/99/174 482/112/174 476/102/174
f 242/120/4 246/121/4 475/14/4 478/13/4
f 254/122/3 245/113/3 483/101/3 484/9/3
f 244/123/129 254/124/129 484/7/129 486/5/129
f 243/125/67 244/123/67 486/5/67 485/2/67
f 1/126/67 243/125/67 485/2/67 473/1/67
f 7/113/57 470/101/57 469/103/57 15/86/57
f 138/114/57 465/96/57 467/94/57 149/115/57
f 149/115/57 467/94/57 466/93/57 150/116/57
f 150/116/57 466/93/57 464/105/57 151/117/57
f 151/117/57 464/105/57 468/104/57 152/118/57
f 152/118/58 468/104/58 463/102/58 153/119/58
f 153/119/57 463/102/57 469/103/57 154/99/57
f 4/120/4 465/13/4 462/14/4 8/121/4
f 16/122/3 471/9/3 470/101/3 7/113/3
f 6/123/2 474/100/2 471/7/2 16/124/2
f 5/125/67 472/2/67 474/100/67 6/123/67
f 1/126/67 473/1/67 472/2/67 5/125/67
f 245/113/174 508/108/174 507/109/174 253/86/174
f 258/114/174 503/96/174 505/94/174 268/115/174
f 268/115/174 505/94/174 504/93/174 269/116/174
f 269/116/174 504/93/174 502/111/174 270/117/174
f 270/117/174 502/111/174 506/110/174 271/118/174
f 271/118/174 506/110/174 501/102/174 272/119/174
f 272/119/174 501/102/174 507/109/174 273/99/174
f 242/120/4 503/13/4 500/14/4 246/121/4
f 254/122/3 509/9/3 508/108/3 245/113/3
f 244/123/129 511/107/129 509/7/129 254/124/129
f 243/125/1 510/106/1 511/107/1 244/123/1
f 1/126/1 498/1/1 510/106/1 243/125/1
f 7/113/57 15/86/57 494/85/57 495/10/57
f 27/114/57 38/115/57 492/94/57 490/96/57
f 38/115/57 39/116/57 491/93/57 492/94/57
f 39/116/57 40/117/57 489/90/57 491/93/57
f 40/117/57 41/118/57 493/88/57 489/90/57
f 41/118/58 42/119/58 488/84/58 493/88/58
f 42/119/57 43/99/57 494/85/57 488/84/57
f 4/120/4 8/121/4 487/14/4 490/13/4
f 16/122/3 7/113/3 495/10/3 496/9/3
f 6/123/2 16/124/2 496/7/2 499/5/2
f 5/125/1 6/123/1 499/5/1 497/2/1
f 1/126/1 5/125/1 497/2/1 498/1/1
f 517/93/57 516/90/57 513/91/57 512/92/57
f 515/93/57 512/92/57 513/91/57 514/105/57
f 466/93/4 11/92/4 512/92/4 515/93/4
f 489/90/3 12/91/3 513/91/3 516/90/3
f 12/91/3 464/105/3 514/105/3 513/91/3
f 491/93/7 489/90/7 516/90/7 517/93/7
